<svg width="2151" height="577" viewBox="0 0 2151 577" fill="none" xmlns="http://www.w3.org/2000/svg">
<path d="M534 172.458C494.735 175.703 458.372 195.707 426.434 214.023C408.537 224.287 392.077 234.032 376.184 241.325C360.809 248.381 347.066 252.598 334.475 252.854L333.26 252.866C320.463 252.866 307.523 248.677 293.745 241.567C279.877 234.411 266.062 224.796 251.231 214.558C222.67 194.84 189.655 172 152 172V196C180.845 196 207.589 213.593 237.597 234.309C252.051 244.287 267.224 254.889 282.739 262.896C298.345 270.948 315.186 276.866 333.26 276.866L334.101 276.862C351.765 276.683 369.291 270.894 386.193 263.138C403.341 255.269 421.019 244.795 438.373 234.843C470.392 216.48 501.75 199.748 534 196.551V240.458C494.735 243.703 458.372 263.707 426.434 282.023C408.537 292.287 392.077 302.032 376.184 309.325C360.809 316.381 347.066 320.598 334.475 320.854L333.26 320.867C320.463 320.867 307.523 316.677 293.745 309.567C279.877 302.411 266.062 292.796 251.231 282.558C222.67 262.84 189.655 240 152 240V264C180.845 264 207.589 281.593 237.597 302.309C252.051 312.287 267.224 322.889 282.739 330.896C298.345 338.948 315.186 344.867 333.26 344.867L334.101 344.862C351.765 344.683 369.291 338.894 386.193 331.138C403.341 323.269 421.019 312.795 438.373 302.843C470.392 284.48 501.75 267.748 534 264.551V300.458C494.735 303.703 458.372 323.707 426.434 342.023C408.537 352.287 392.077 362.032 376.184 369.325C360.809 376.381 347.066 380.598 334.475 380.854L333.26 380.867C320.463 380.867 307.523 376.677 293.745 369.567C279.877 362.411 266.062 352.796 251.231 342.558C222.67 322.84 189.655 300 152 300V324C180.845 324 207.589 341.593 237.597 362.309C252.051 372.287 267.224 382.889 282.739 390.896C298.345 398.948 315.186 404.867 333.26 404.867L334.101 404.862C351.765 404.683 369.291 398.894 386.193 391.138C403.341 383.269 421.019 372.795 438.373 362.843C470.392 344.48 501.75 327.748 534 324.551V531H43V45H534V172.458ZM932 324C891.886 324 864.479 342.072 837.192 362.106C810.951 381.374 782.81 404.502 744.628 404.862L743.725 404.867C705.55 404.867 672.499 382.071 642.235 362.512C610.658 342.104 580.706 324 544.924 324C541.27 324 537.629 324.191 534 324.551V300.458C537.617 300.159 541.259 300 544.924 300C588.718 300 624.278 322.331 655.263 342.355C687.561 363.229 714.124 380.867 743.725 380.867L745.084 380.854C773.531 380.332 794.815 363.446 822.988 342.761C850.771 322.362 883.614 300 932 300V324ZM932 264C891.886 264 864.479 282.072 837.192 302.106C810.951 321.374 782.81 344.502 744.628 344.862L743.725 344.867C705.55 344.867 672.499 322.071 642.235 302.512C610.658 282.104 580.706 264 544.924 264C541.27 264 537.629 264.191 534 264.551V240.458C537.617 240.159 541.259 240 544.924 240C588.718 240 624.278 262.331 655.263 282.355C687.561 303.229 714.124 320.867 743.725 320.867L745.084 320.854C773.531 320.332 794.815 303.446 822.988 282.761C850.771 262.362 883.614 240 932 240V264ZM932 196C891.886 196 864.479 214.072 837.192 234.106C810.951 253.374 782.81 276.502 744.628 276.862L743.725 276.866C705.55 276.866 672.499 254.071 642.235 234.512C610.658 214.104 580.706 196 544.924 196C541.27 196 537.629 196.191 534 196.551V172.458C537.617 172.159 541.259 172 544.924 172C588.718 172 624.278 194.33 655.263 214.354C687.561 235.229 714.124 252.866 743.725 252.866L745.084 252.854C773.531 252.332 794.815 235.446 822.988 214.761C850.771 194.362 883.614 172 932 172V196Z" fill="#26844F"/>
<mask id="path-2-inside-1_82_28" fill="white">
<rect width="577" height="577" rx="12"/>
</mask>
<rect width="577" height="577" rx="12" stroke="#26844F" stroke-width="40" mask="url(#path-2-inside-1_82_28)"/>
<path d="M1081.61 159.996C1081.61 148.907 1081.25 138.176 1080.54 127.803C1080.18 117.429 1080 109.202 1080 103.121C1080 99.5443 1083.93 97.7558 1091.8 97.7558C1097.88 97.7558 1104.5 99.1867 1111.65 102.048C1118.8 104.552 1122.38 108.129 1122.38 112.779C1122.38 117.072 1122.2 123.868 1121.84 133.168C1121.48 142.111 1121.3 151.232 1121.3 160.532V419.15C1121.3 430.239 1121.48 440.97 1121.84 451.343C1122.56 461.717 1122.91 469.944 1122.91 476.025C1122.91 479.602 1118.98 481.39 1111.11 481.39C1105.03 481.39 1098.42 479.96 1091.26 477.098C1084.11 474.594 1080.54 471.017 1080.54 466.367C1080.54 462.074 1080.72 455.457 1081.07 446.514C1081.43 437.214 1081.61 427.914 1081.61 418.614V159.996Z" fill="#26844F"/>
<path d="M1223.61 144.436H1223.07C1217.7 144.436 1212.34 141.217 1206.98 134.778C1201.61 128.339 1198.93 122.795 1198.93 118.145C1198.93 114.568 1200.54 112.6 1203.76 112.243C1226.29 107.95 1244.17 104.731 1257.4 102.585C1270.63 100.081 1281.36 98.2924 1289.59 97.2193C1298.17 95.7885 1306.04 95.0731 1313.19 95.0731C1320.34 94.7154 1328.74 94.5365 1338.4 94.5365C1385.25 94.5365 1419.76 102.406 1441.93 118.145C1464.1 133.526 1475.19 154.988 1475.19 182.531C1475.19 214.009 1465.17 239.048 1445.15 257.648C1425.48 276.249 1399.19 288.947 1366.29 295.743C1356.28 297.89 1343.05 299.857 1326.6 301.646C1310.51 303.434 1295.66 304.328 1282.08 304.328C1279.21 304.328 1276.35 304.328 1273.49 304.328C1270.99 304.328 1268.66 304.149 1266.52 303.792C1264.37 303.076 1262.59 302.361 1261.15 301.646V414.321C1261.15 426.483 1261.33 438.466 1261.69 450.27C1262.41 461.717 1262.76 470.48 1262.76 476.561C1262.76 480.138 1259.01 481.927 1251.5 481.927C1245.78 481.927 1239.52 480.496 1232.72 477.634C1225.93 475.131 1222.53 471.554 1222.53 466.903C1222.53 462.611 1222.71 455.278 1223.07 444.905C1223.43 434.531 1223.61 424.158 1223.61 413.785V144.436ZM1261.15 281.793C1262.23 281.078 1263.3 280.541 1264.37 280.183C1265.45 279.826 1266.7 279.647 1268.13 279.647C1301.03 277.501 1328.03 273.387 1349.13 267.306C1370.23 261.225 1386.68 254.25 1398.48 246.381C1410.64 238.154 1419.4 230.105 1424.76 222.236C1430.13 214.009 1433.35 206.676 1434.42 200.237C1435.85 193.441 1436.56 188.612 1436.56 185.75C1436.56 165.719 1427.8 151.232 1410.28 142.29C1393.11 132.989 1368.8 128.339 1337.33 128.339C1324.45 128.339 1311.4 129.412 1298.17 131.559C1284.94 133.347 1272.6 135.851 1261.15 139.07V281.793Z" fill="#26844F"/>
<path d="M1791.23 477.098C1788.36 476.74 1782.11 476.383 1772.45 476.025C1763.15 475.667 1753.86 475.488 1744.56 475.488H1735.97L1586.85 477.634C1581.13 477.634 1576.12 478.171 1571.83 479.244C1567.9 480.675 1563.25 481.39 1557.88 481.39C1552.88 481.39 1547.87 478.35 1542.86 472.269C1537.86 465.83 1535.35 460.465 1535.35 456.172C1535.35 453.668 1535.89 449.913 1536.96 444.905C1538.39 439.897 1539.11 435.247 1539.11 430.954V291.451C1535.17 289.305 1531.78 285.37 1528.92 279.647C1526.06 273.924 1524.63 269.095 1524.63 265.16C1524.63 261.225 1526.06 259.258 1528.92 259.258H1529.99C1531.42 259.616 1532.85 259.973 1534.28 260.331C1536.07 260.331 1537.68 260.331 1539.11 260.331V151.948C1539.11 146.224 1539.11 140.859 1539.11 135.851C1539.11 130.486 1538.75 125.657 1538.04 121.364C1537.68 118.145 1537.32 115.641 1536.96 113.852C1536.96 111.706 1536.96 109.918 1536.96 108.487C1536.96 104.91 1537.86 102.764 1539.64 102.048C1541.43 101.333 1543.04 100.975 1544.47 100.975C1549.48 100.975 1555.38 102.048 1562.17 104.194C1568.97 106.341 1572.55 107.593 1572.9 107.95L1718.27 98.2924C1726.5 97.577 1735.08 96.6827 1744.02 95.6096C1753.32 94.5365 1759.58 94 1762.8 94C1767.8 94 1772.09 97.2193 1775.67 103.658C1779.25 109.739 1781.03 115.283 1781.03 120.291C1781.03 126.372 1778.71 129.412 1774.06 129.412H1751.53C1746.17 129.412 1740.62 129.412 1734.9 129.412C1729.18 129.412 1723.82 129.591 1718.81 129.949L1575.58 139.607V259.794L1688.77 252.819C1696.99 252.104 1705.58 251.21 1714.52 250.137C1723.82 249.063 1730.07 248.527 1733.29 248.527C1738.3 248.527 1742.59 251.746 1746.17 258.185C1749.74 264.266 1751.53 269.989 1751.53 275.354C1751.53 281.435 1749.21 284.476 1744.56 284.476H1722.03C1716.66 284.476 1711.12 284.476 1705.4 284.476C1699.68 284.476 1694.31 284.655 1689.31 285.012L1575.58 291.451V444.368L1735.44 441.686C1743.31 441.686 1751.35 441.507 1759.58 441.149C1767.8 440.791 1774.6 440.434 1779.96 440.076H1780.5C1785.15 440.076 1789.08 443.474 1792.3 450.27C1795.87 456.709 1797.66 462.79 1797.66 468.513C1797.66 474.236 1795.7 477.098 1791.76 477.098H1791.23Z" fill="#26844F"/>
<path d="M2111.84 159.996C2111.84 148.907 2111.48 138.176 2110.77 127.803C2110.05 117.429 2109.7 109.202 2109.7 103.121C2109.7 99.5443 2113.45 97.7558 2120.96 97.7558C2127.04 97.7558 2133.3 99.1867 2139.74 102.048C2146.53 104.552 2149.93 108.129 2149.93 112.779C2149.93 117.072 2149.75 123.868 2149.39 133.168C2149.03 142.111 2148.85 151.232 2148.85 160.532V429.345C2148.85 432.564 2149.21 437.572 2149.93 444.368C2150.64 450.807 2151 455.636 2151 458.855C2151 462.432 2149.21 466.188 2145.64 470.123C2142.42 473.7 2138.3 476.74 2133.3 479.244C2128.29 481.748 2123.64 483 2119.35 483C2113.63 483 2108.98 480.496 2105.4 475.488C2102.19 470.48 2099.15 466.009 2096.29 462.074C2080.91 440.255 2064.64 416.825 2047.47 391.786C2030.31 366.747 2013.14 341.171 1995.97 315.059C1978.81 288.947 1962.18 263.193 1946.09 237.796C1930.35 212.399 1915.69 188.254 1902.1 165.361V419.687C1902.1 430.776 1902.28 441.507 1902.64 451.88C1903.35 462.253 1903.71 470.48 1903.71 476.561C1903.71 478.35 1902.64 479.602 1900.49 480.317C1898.35 481.39 1895.84 481.927 1892.98 481.927C1887.26 481.927 1881 480.496 1874.21 477.634C1867.41 475.131 1864.02 471.554 1864.02 466.903C1864.02 462.611 1864.19 455.994 1864.55 447.051C1864.91 437.751 1865.09 428.451 1865.09 419.15V132.095C1865.09 128.876 1864.37 125.478 1862.94 121.901C1861.87 117.966 1861.33 114.747 1861.33 112.243C1861.33 110.812 1861.51 109.918 1861.87 109.56C1863.66 105.625 1867.95 102.406 1874.74 99.9021C1881.9 97.3982 1888.15 96.1462 1893.52 96.1462C1895.66 96.1462 1897.27 96.3251 1898.35 96.6828C1901.56 97.0405 1903.89 98.6501 1905.32 101.512C1907.11 104.373 1908.9 107.235 1910.68 110.097C1933.21 147.655 1955.92 184.856 1978.81 221.699C2002.05 258.543 2024.94 293.955 2047.47 327.937C2070.36 361.56 2091.81 392.323 2111.84 420.223V159.996Z" fill="#26844F"/>
</svg>
