<svg width="1605" height="467" viewBox="0 0 1605 467" fill="none" xmlns="http://www.w3.org/2000/svg">
<path d="M763.267 132.914C763.267 124.192 762.985 115.75 762.422 107.59C762.141 99.4303 762 92.9586 762 88.1752C762 85.3614 765.096 83.9545 771.289 83.9545C776.074 83.9545 781.282 85.08 786.911 87.331C792.541 89.3007 795.356 92.1145 795.356 95.7724C795.356 99.149 795.215 104.495 794.933 111.811C794.652 118.846 794.511 126.021 794.511 133.337V336.774C794.511 345.497 794.652 353.938 794.933 362.098C795.496 370.258 795.778 376.73 795.778 381.513C795.778 384.327 792.682 385.734 786.489 385.734C781.704 385.734 776.496 384.608 770.867 382.357C765.237 380.388 762.422 377.574 762.422 373.916C762.422 370.539 762.563 365.334 762.844 358.299C763.126 350.983 763.267 343.668 763.267 336.352V132.914Z" fill="white"/>
<path d="M875.034 120.674H874.612C870.39 120.674 866.167 118.142 861.945 113.077C857.723 108.012 855.612 103.651 855.612 99.9931C855.612 97.1793 856.878 95.6317 859.412 95.3503C877.145 91.9738 891.219 89.4414 901.634 87.7531C912.049 85.7834 920.493 84.3766 926.968 83.5324C933.723 82.4069 939.916 81.8441 945.545 81.8441C951.175 81.5628 957.79 81.4221 965.39 81.4221C1002.26 81.4221 1029.43 87.6124 1046.88 99.9931C1064.33 112.092 1073.06 128.975 1073.06 150.641C1073.06 175.403 1065.18 195.099 1049.41 209.731C1033.93 224.363 1013.24 234.352 987.346 239.698C979.464 241.386 969.049 242.934 956.101 244.341C943.434 245.748 931.753 246.451 921.056 246.451C918.805 246.451 916.553 246.451 914.301 246.451C912.33 246.451 910.501 246.31 908.812 246.029C907.123 245.466 905.716 244.903 904.59 244.341V332.975C904.59 342.542 904.73 351.968 905.012 361.254C905.575 370.258 905.856 377.152 905.856 381.935C905.856 384.749 902.901 386.156 896.99 386.156C892.486 386.156 887.56 385.03 882.212 382.779C876.864 380.81 874.19 377.996 874.19 374.338C874.19 370.961 874.33 365.193 874.612 357.033C874.893 348.873 875.034 340.713 875.034 332.553V120.674ZM904.59 228.724C905.434 228.161 906.279 227.739 907.123 227.458C907.967 227.177 908.953 227.036 910.079 227.036C935.975 225.348 957.227 222.112 973.834 217.328C990.442 212.545 1003.39 207.058 1012.68 200.868C1022.25 194.396 1029.15 188.065 1033.37 181.874C1037.59 175.403 1040.12 169.634 1040.97 164.57C1042.09 159.223 1042.66 155.425 1042.66 153.174C1042.66 137.417 1035.76 126.021 1021.97 118.986C1008.46 111.67 989.316 108.012 964.545 108.012C954.412 108.012 944.138 108.857 933.723 110.545C923.308 111.952 913.597 113.921 904.59 116.454V228.724Z" fill="white"/>
<path d="M1321.82 382.357C1319.56 382.076 1314.64 381.794 1307.04 381.513C1299.72 381.232 1292.4 381.091 1285.08 381.091H1278.33L1160.95 382.779C1156.45 382.779 1152.5 383.201 1149.13 384.045C1146.03 385.171 1142.37 385.734 1138.15 385.734C1134.21 385.734 1130.27 383.342 1126.33 378.559C1122.39 373.494 1120.42 369.273 1120.42 365.897C1120.42 363.927 1120.84 360.972 1121.68 357.033C1122.81 353.094 1123.37 349.436 1123.37 346.059V236.321C1120.27 234.633 1117.6 231.538 1115.35 227.036C1113.1 222.534 1111.97 218.735 1111.97 215.64C1111.97 212.545 1113.1 210.997 1115.35 210.997H1116.19C1117.32 211.279 1118.45 211.56 1119.57 211.841C1120.98 211.841 1122.25 211.841 1123.37 211.841V126.583C1123.37 122.081 1123.37 117.861 1123.37 113.921C1123.37 109.701 1123.09 105.902 1122.53 102.526C1122.25 99.9931 1121.96 98.0234 1121.68 96.6166C1121.68 94.9283 1121.68 93.5214 1121.68 92.3958C1121.68 89.5821 1122.39 87.8938 1123.79 87.331C1125.2 86.7683 1126.47 86.4869 1127.59 86.4869C1131.53 86.4869 1136.18 87.331 1141.53 89.0193C1146.87 90.7076 1149.69 91.6924 1149.97 91.9738L1264.39 84.3765C1270.87 83.8138 1277.62 83.1103 1284.66 82.2662C1291.98 81.4221 1296.91 81 1299.44 81C1303.38 81 1306.76 83.5324 1309.57 88.5972C1312.39 93.3807 1313.79 97.7421 1313.79 101.681C1313.79 106.465 1311.96 108.857 1308.31 108.857H1290.57C1286.35 108.857 1281.99 108.857 1277.48 108.857C1272.98 108.857 1268.76 108.997 1264.82 109.279L1152.08 116.876V211.419L1241.17 205.932C1247.65 205.37 1254.4 204.666 1261.44 203.822C1268.76 202.978 1273.68 202.556 1276.22 202.556C1280.16 202.556 1283.53 205.088 1286.35 210.153C1289.16 214.937 1290.57 219.439 1290.57 223.659C1290.57 228.443 1288.74 230.834 1285.08 230.834H1267.35C1263.13 230.834 1258.76 230.834 1254.26 230.834C1249.76 230.834 1245.53 230.975 1241.59 231.257L1152.08 236.321V356.611L1277.91 354.501C1284.1 354.501 1290.43 354.36 1296.91 354.079C1303.38 353.797 1308.73 353.516 1312.95 353.234H1313.37C1317.03 353.234 1320.13 355.908 1322.66 361.254C1325.48 366.319 1326.88 371.102 1326.88 375.604C1326.88 380.106 1325.33 382.357 1322.24 382.357H1321.82Z" fill="white"/>
<path d="M1574.18 132.914C1574.18 124.192 1573.9 115.75 1573.33 107.59C1572.77 99.4303 1572.49 92.9586 1572.49 88.1752C1572.49 85.3614 1575.44 83.9545 1581.36 83.9545C1586.14 83.9545 1591.07 85.08 1596.13 87.331C1601.48 89.3007 1604.16 92.1145 1604.16 95.7724C1604.16 99.149 1604.01 104.495 1603.73 111.811C1603.45 118.846 1603.31 126.021 1603.31 133.337V344.793C1603.31 347.326 1603.59 351.265 1604.16 356.611C1604.72 361.676 1605 365.474 1605 368.007C1605 370.821 1603.59 373.775 1600.78 376.87C1598.24 379.684 1595.01 382.076 1591.07 384.045C1587.13 386.015 1583.47 387 1580.09 387C1575.59 387 1571.93 385.03 1569.11 381.091C1566.58 377.152 1564.18 373.634 1561.93 370.539C1549.83 353.375 1537.02 334.945 1523.51 315.248C1510 295.552 1496.49 275.433 1482.98 254.892C1469.47 234.352 1456.38 214.092 1443.71 194.114C1431.33 174.137 1419.78 155.143 1409.09 137.135V337.196C1409.09 345.919 1409.23 354.36 1409.51 362.52C1410.07 370.68 1410.35 377.152 1410.35 381.935C1410.35 383.342 1409.51 384.327 1407.82 384.89C1406.13 385.734 1404.16 386.156 1401.91 386.156C1397.41 386.156 1392.48 385.03 1387.13 382.779C1381.78 380.81 1379.11 377.996 1379.11 374.338C1379.11 370.961 1379.25 365.756 1379.53 358.721C1379.81 351.405 1379.95 344.09 1379.95 336.774V110.967C1379.95 108.434 1379.39 105.761 1378.27 102.948C1377.42 99.8524 1377 97.32 1377 95.3503C1377 94.2248 1377.14 93.5214 1377.42 93.24C1378.83 90.1448 1382.21 87.6124 1387.55 85.6427C1393.18 83.6731 1398.11 82.6883 1402.33 82.6883C1404.02 82.6883 1405.29 82.829 1406.13 83.1103C1408.67 83.3917 1410.5 84.6579 1411.62 86.909C1413.03 89.16 1414.44 91.411 1415.84 93.6621C1433.58 123.207 1451.45 152.47 1469.47 181.452C1487.76 210.434 1505.78 238.291 1523.51 265.022C1541.53 291.472 1558.41 315.67 1574.18 337.618V132.914Z" fill="white"/>
<path d="M437 144.05C427.261 144.444 417.761 147.799 409.066 151.855C400.01 156.081 390.693 161.633 381.978 166.689C363.5 177.41 347.708 185.713 333.111 185.515C317.935 185.308 301.618 177.637 283.464 168.241C274.819 163.767 265.683 158.891 256.952 155.155C248.246 151.43 238.867 148.346 229.49 148.02L228.69 171.006C233.848 171.185 240.138 172.979 247.904 176.302C255.645 179.614 263.786 183.955 272.892 188.668C290.238 197.646 311.319 208.221 332.799 208.513C354.858 208.812 376.233 196.614 393.521 186.584C402.688 181.265 410.905 176.379 418.792 172.699C425.963 169.354 431.934 167.469 437 167.084V202.05C427.261 202.444 417.761 205.799 409.066 209.855C400.01 214.081 390.693 219.633 381.978 224.689C363.5 235.41 347.708 243.713 333.111 243.515C317.935 243.308 301.618 235.637 283.464 226.241C274.819 221.767 265.683 216.891 256.952 213.155C248.246 209.43 238.867 206.346 229.49 206.02L228.69 229.006C233.848 229.185 240.138 230.979 247.904 234.302C255.645 237.614 263.786 241.955 272.892 246.668C290.238 255.646 311.319 266.221 332.799 266.513C354.858 266.812 376.233 254.614 393.521 244.584C402.688 239.265 410.905 234.379 418.792 230.699C425.963 227.354 431.934 225.469 437 225.084V260.05C427.261 260.444 417.761 263.799 409.066 267.855C400.01 272.081 390.693 277.633 381.978 282.689C363.5 293.41 347.708 301.713 333.111 301.515C317.935 301.308 301.618 293.637 283.464 284.241C274.819 279.767 265.683 274.891 256.952 271.155C248.246 267.43 238.867 264.346 229.49 264.02L228.69 287.006C233.848 287.185 240.138 288.979 247.904 292.302C255.645 295.614 263.786 299.955 272.892 304.668C290.238 313.646 311.319 324.221 332.799 324.513C354.858 324.812 376.233 312.614 393.521 302.584C402.688 297.265 410.905 292.379 418.792 288.699C425.963 285.354 431.934 283.469 437 283.084V434H37V34H437V144.05ZM438.159 260.017C448.506 259.852 458.317 263.256 467.132 267.497C475.915 271.723 484.849 277.37 493.15 282.464C510.722 293.246 526.006 301.714 541.512 301.514C557.885 301.303 575.926 293.449 594.27 284.292C602.986 279.941 612.052 275.164 620.026 271.638C627.782 268.208 636.458 265.023 644.543 265.023L644.544 276.523L644.543 288.023C641.686 288.024 636.868 289.338 629.328 292.672C622.007 295.909 613.975 300.162 604.543 304.871C586.589 313.834 564.13 324.225 541.809 324.513C518.619 324.812 497.771 312.283 481.122 302.067C472.313 296.662 464.614 291.809 457.16 288.223C449.738 284.652 443.707 282.931 438.526 283.014C438.027 283.022 437.518 283.045 437 283.084V260.05C437.386 260.034 437.772 260.023 438.159 260.017ZM438.159 202.017C448.506 201.852 458.317 205.256 467.132 209.497C475.915 213.723 484.849 219.37 493.15 224.464C510.722 235.246 526.006 243.714 541.512 243.514C557.885 243.303 575.926 235.449 594.27 226.292C602.986 221.941 612.052 217.164 620.026 213.638C627.782 210.208 636.458 207.023 644.543 207.023L644.544 218.523L644.543 230.023C641.686 230.024 636.868 231.338 629.328 234.672C622.007 237.909 613.975 242.162 604.543 246.871C586.589 255.834 564.13 266.225 541.809 266.513C518.619 266.812 497.771 254.283 481.122 244.067C472.313 238.662 464.614 233.809 457.16 230.223C449.738 226.652 443.707 224.931 438.526 225.014C438.027 225.022 437.518 225.045 437 225.084V202.05C437.386 202.034 437.772 202.023 438.159 202.017ZM438.159 144.017C448.506 143.852 458.317 147.256 467.132 151.497C475.915 155.723 484.849 161.37 493.15 166.464C510.722 177.246 526.006 185.714 541.512 185.514C557.885 185.303 575.926 177.449 594.27 168.292C602.986 163.941 612.052 159.164 620.026 155.638C627.782 152.208 636.458 149.023 644.543 149.023L644.544 160.523L644.543 172.023C641.686 172.024 636.868 173.338 629.328 176.672C622.007 179.909 613.975 184.162 604.543 188.871C586.589 197.834 564.13 208.225 541.809 208.513C518.619 208.812 497.771 196.283 481.122 186.067C472.313 180.662 464.614 175.809 457.16 172.223C449.738 168.652 443.707 166.931 438.526 167.014C438.027 167.022 437.518 167.045 437 167.084V144.05C437.386 144.034 437.772 144.023 438.159 144.017Z" fill="white"/>
<rect x="7.5" y="7.5" width="458" height="452" stroke="white" stroke-width="15"/>
</svg>
