<svg width="2723" height="467" viewBox="0 0 2723 467" fill="none" xmlns="http://www.w3.org/2000/svg">
<path d="M437 144.05C427.261 144.444 417.761 147.799 409.066 151.855C400.01 156.081 390.693 161.633 381.978 166.689C363.5 177.41 347.708 185.713 333.111 185.515C317.935 185.308 301.618 177.637 283.464 168.241C274.819 163.767 265.683 158.891 256.952 155.155C248.246 151.43 238.867 148.346 229.49 148.02L228.69 171.006C233.848 171.185 240.138 172.979 247.904 176.302C255.645 179.614 263.786 183.955 272.892 188.668C290.238 197.646 311.319 208.221 332.799 208.513C354.858 208.812 376.233 196.614 393.521 186.584C402.688 181.265 410.905 176.379 418.792 172.699C425.963 169.354 431.934 167.469 437 167.084V202.05C427.261 202.444 417.761 205.799 409.066 209.855C400.01 214.081 390.693 219.633 381.978 224.689C363.5 235.41 347.708 243.713 333.111 243.515C317.935 243.308 301.618 235.637 283.464 226.241C274.819 221.767 265.683 216.891 256.952 213.155C248.246 209.43 238.867 206.346 229.49 206.02L228.69 229.006C233.848 229.185 240.138 230.979 247.904 234.302C255.645 237.614 263.786 241.955 272.892 246.668C290.238 255.646 311.319 266.221 332.799 266.513C354.858 266.812 376.233 254.614 393.521 244.584C402.688 239.265 410.905 234.379 418.792 230.699C425.963 227.354 431.934 225.469 437 225.084V260.05C427.261 260.444 417.761 263.799 409.066 267.855C400.01 272.081 390.693 277.633 381.978 282.689C363.5 293.41 347.708 301.713 333.111 301.515C317.935 301.308 301.618 293.637 283.464 284.241C274.819 279.767 265.683 274.891 256.952 271.155C248.246 267.43 238.867 264.346 229.49 264.02L228.69 287.006C233.848 287.185 240.138 288.979 247.904 292.302C255.645 295.614 263.786 299.955 272.892 304.668C290.238 313.646 311.319 324.221 332.799 324.513C354.858 324.812 376.233 312.614 393.521 302.584C402.688 297.265 410.905 292.379 418.792 288.699C425.963 285.354 431.934 283.469 437 283.084V434H37V34H437V144.05ZM438.159 260.017C448.506 259.852 458.317 263.256 467.132 267.497C475.915 271.723 484.849 277.37 493.15 282.464C510.722 293.246 526.006 301.714 541.512 301.514C557.885 301.303 575.926 293.449 594.27 284.292C602.986 279.941 612.052 275.164 620.026 271.638C627.782 268.208 636.458 265.023 644.543 265.023L644.544 276.523L644.543 288.023C641.686 288.024 636.868 289.338 629.328 292.672C622.007 295.909 613.975 300.162 604.543 304.871C586.589 313.834 564.13 324.225 541.809 324.513C518.619 324.812 497.771 312.283 481.122 302.067C472.313 296.662 464.614 291.809 457.16 288.223C449.738 284.652 443.707 282.931 438.526 283.014C438.027 283.022 437.518 283.045 437 283.084V260.05C437.386 260.034 437.772 260.023 438.159 260.017ZM438.159 202.017C448.506 201.852 458.317 205.256 467.132 209.497C475.915 213.723 484.849 219.37 493.15 224.464C510.722 235.246 526.006 243.714 541.512 243.514C557.885 243.303 575.926 235.449 594.27 226.292C602.986 221.941 612.052 217.164 620.026 213.638C627.782 210.208 636.458 207.023 644.543 207.023L644.544 218.523L644.543 230.023C641.686 230.024 636.868 231.338 629.328 234.672C622.007 237.909 613.975 242.162 604.543 246.871C586.589 255.834 564.13 266.225 541.809 266.513C518.619 266.812 497.771 254.283 481.122 244.067C472.313 238.662 464.614 233.809 457.16 230.223C449.738 226.652 443.707 224.931 438.526 225.014C438.027 225.022 437.518 225.045 437 225.084V202.05C437.386 202.034 437.772 202.023 438.159 202.017ZM438.159 144.017C448.506 143.852 458.317 147.256 467.132 151.497C475.915 155.723 484.849 161.37 493.15 166.464C510.722 177.246 526.006 185.714 541.512 185.514C557.885 185.303 575.926 177.449 594.27 168.292C602.986 163.941 612.052 159.164 620.026 155.638C627.782 152.208 636.458 149.023 644.543 149.023L644.544 160.523L644.543 172.023C641.686 172.024 636.868 173.338 629.328 176.672C622.007 179.909 613.975 184.162 604.543 188.871C586.589 197.834 564.13 208.225 541.809 208.513C518.619 208.812 497.771 196.283 481.122 186.067C472.313 180.662 464.614 175.809 457.16 172.223C449.738 168.652 443.707 166.931 438.526 167.014C438.027 167.022 437.518 167.045 437 167.084V144.05C437.386 144.034 437.772 144.023 438.159 144.017Z" fill="#26844F"/>
<rect x="7.5" y="7.5" width="458" height="452" stroke="#26844F" stroke-width="15"/>
<path d="M765 144.474C765 137.578 764.778 130.905 764.333 124.455C764.111 118.004 764 112.888 764 109.107C764 106.882 766.445 105.77 771.336 105.77C775.116 105.77 779.228 106.66 783.675 108.439C788.121 109.996 790.344 112.221 790.344 115.112C790.344 117.782 790.233 122.008 790.011 127.791C789.788 133.352 789.677 139.024 789.677 144.807V305.627C789.677 312.523 789.788 319.196 790.011 325.646C790.455 332.097 790.678 337.213 790.678 340.994C790.678 343.219 788.232 344.331 783.341 344.331C779.562 344.331 775.449 343.441 771.003 341.662C766.557 340.105 764.333 337.88 764.333 334.989C764.333 332.319 764.445 328.204 764.667 322.643C764.889 316.86 765 311.077 765 305.294V144.474Z" fill="#26844F"/>
<path d="M863.278 134.798H862.944C859.609 134.798 856.275 132.796 852.94 128.792C849.605 124.788 847.938 121.341 847.938 118.449C847.938 116.225 848.938 115.001 850.939 114.779C864.945 112.11 876.061 110.108 884.286 108.773C892.512 107.216 899.181 106.104 904.294 105.437C909.63 104.547 914.521 104.102 918.967 104.102C923.413 103.88 928.638 103.768 934.64 103.768C963.763 103.768 985.217 108.662 999 118.449C1012.78 128.014 1019.68 141.36 1019.68 158.487C1019.68 178.061 1013.45 193.632 1001 205.198C988.774 216.765 972.433 224.661 951.981 228.888C945.756 230.222 937.53 231.445 927.304 232.558C917.3 233.67 908.074 234.226 899.626 234.226C897.847 234.226 896.069 234.226 894.29 234.226C892.734 234.226 891.289 234.115 889.955 233.892C888.621 233.447 887.51 233.003 886.621 232.558V302.624C886.621 310.187 886.732 317.639 886.954 324.979C887.399 332.097 887.621 337.547 887.621 341.328C887.621 343.552 885.287 344.664 880.618 344.664C877.061 344.664 873.171 343.775 868.947 341.995C864.723 340.438 862.611 338.214 862.611 335.322C862.611 332.653 862.722 328.093 862.944 321.643C863.166 315.192 863.278 308.741 863.278 302.291V134.798ZM886.621 220.213C887.288 219.768 887.954 219.434 888.621 219.212C889.288 218.989 890.066 218.878 890.956 218.878C911.409 217.543 928.193 214.985 941.31 211.204C954.426 207.423 964.653 203.085 971.989 198.192C979.548 193.076 984.994 188.071 988.329 183.177C991.664 178.061 993.664 173.501 994.331 169.498C995.221 165.271 995.665 162.268 995.665 160.489C995.665 148.033 990.219 139.024 979.325 133.463C968.654 127.68 953.537 124.788 933.973 124.788C925.97 124.788 917.856 125.456 909.63 126.79C901.404 127.902 893.735 129.459 886.621 131.461V220.213Z" fill="#26844F"/>
<path d="M1226.15 341.662C1224.37 341.439 1220.48 341.217 1214.48 340.994C1208.7 340.772 1202.92 340.661 1197.14 340.661H1191.8L1099.1 341.995C1095.54 341.995 1092.43 342.329 1089.76 342.996C1087.31 343.886 1084.42 344.331 1081.09 344.331C1077.98 344.331 1074.86 342.44 1071.75 338.659C1068.64 334.655 1067.08 331.318 1067.08 328.649C1067.08 327.092 1067.42 324.757 1068.08 321.643C1068.97 318.528 1069.42 315.637 1069.42 312.968V226.218C1066.97 224.884 1064.86 222.437 1063.08 218.878C1061.3 215.319 1060.41 212.316 1060.41 209.869C1060.41 207.423 1061.3 206.199 1063.08 206.199H1063.75C1064.64 206.422 1065.53 206.644 1066.42 206.867C1067.53 206.867 1068.53 206.867 1069.42 206.867V139.469C1069.42 135.91 1069.42 132.574 1069.42 129.459C1069.42 126.123 1069.19 123.12 1068.75 120.451C1068.53 118.449 1068.31 116.892 1068.08 115.78C1068.08 114.445 1068.08 113.333 1068.08 112.443C1068.08 110.219 1068.64 108.884 1069.75 108.439C1070.86 107.995 1071.86 107.772 1072.75 107.772C1075.86 107.772 1079.53 108.439 1083.76 109.774C1087.98 111.109 1090.2 111.887 1090.43 112.11L1180.8 106.104C1185.91 105.659 1191.24 105.103 1196.8 104.436C1202.58 103.768 1206.47 103.435 1208.47 103.435C1211.59 103.435 1214.25 105.437 1216.48 109.44C1218.7 113.222 1219.81 116.669 1219.81 119.784C1219.81 123.565 1218.37 125.456 1215.48 125.456H1201.47C1198.14 125.456 1194.69 125.456 1191.13 125.456C1187.58 125.456 1184.24 125.567 1181.13 125.789L1092.09 131.795V206.533L1162.45 202.195C1167.57 201.751 1172.9 201.194 1178.46 200.527C1184.24 199.86 1188.13 199.526 1190.13 199.526C1193.25 199.526 1195.91 201.528 1198.14 205.532C1200.36 209.313 1201.47 212.872 1201.47 216.209C1201.47 219.99 1200.03 221.881 1197.14 221.881H1183.13C1179.8 221.881 1176.35 221.881 1172.79 221.881C1169.24 221.881 1165.9 221.992 1162.79 222.214L1092.09 226.218V321.309L1191.47 319.641C1196.36 319.641 1201.36 319.529 1206.47 319.307C1211.59 319.085 1215.81 318.862 1219.14 318.64H1219.48C1222.37 318.64 1224.81 320.753 1226.81 324.979C1229.04 328.983 1230.15 332.764 1230.15 336.323C1230.15 339.882 1228.93 341.662 1226.48 341.662H1226.15Z" fill="#26844F"/>
<path d="M1435.47 144.474C1435.47 137.578 1435.24 130.905 1434.8 124.455C1434.35 118.004 1434.13 112.888 1434.13 109.107C1434.13 106.882 1436.47 105.77 1441.13 105.77C1444.91 105.77 1448.8 106.66 1452.81 108.439C1457.03 109.996 1459.14 112.221 1459.14 115.112C1459.14 117.782 1459.03 122.008 1458.81 127.791C1458.59 133.352 1458.47 139.024 1458.47 144.807V311.967C1458.47 313.969 1458.7 317.083 1459.14 321.309C1459.59 325.313 1459.81 328.316 1459.81 330.317C1459.81 332.542 1458.7 334.877 1456.47 337.324C1454.47 339.548 1451.92 341.439 1448.8 342.996C1445.69 344.553 1442.8 345.332 1440.13 345.332C1436.58 345.332 1433.69 343.775 1431.46 340.661C1429.46 337.547 1427.57 334.766 1425.79 332.319C1416.24 318.751 1406.12 304.181 1395.45 288.611C1384.78 273.041 1374.11 257.137 1363.44 240.899C1352.76 224.661 1342.43 208.646 1332.42 192.853C1322.64 177.06 1313.53 162.046 1305.08 147.81V305.961C1305.08 312.856 1305.19 319.529 1305.41 325.98C1305.86 332.431 1306.08 337.547 1306.08 341.328C1306.08 342.44 1305.41 343.219 1304.08 343.664C1302.74 344.331 1301.19 344.664 1299.41 344.664C1295.85 344.664 1291.96 343.775 1287.74 341.995C1283.51 340.438 1281.4 338.214 1281.4 335.322C1281.4 332.653 1281.51 328.538 1281.74 322.977C1281.96 317.194 1282.07 311.411 1282.07 305.627V127.124C1282.07 125.122 1281.62 123.009 1280.74 120.785C1280.07 118.338 1279.73 116.336 1279.73 114.779C1279.73 113.889 1279.85 113.333 1280.07 113.111C1281.18 110.664 1283.85 108.662 1288.07 107.105C1292.52 105.548 1296.41 104.769 1299.74 104.769C1301.08 104.769 1302.08 104.88 1302.74 105.103C1304.75 105.325 1306.19 106.326 1307.08 108.106C1308.19 109.885 1309.3 111.665 1310.41 113.444C1324.42 136.8 1338.54 159.933 1352.76 182.844C1367.22 205.754 1381.44 227.775 1395.45 248.907C1409.68 269.815 1423.02 288.945 1435.47 306.295V144.474Z" fill="#26844F"/>
<path d="M1687.53 217.543C1671.3 213.762 1658.41 207.867 1648.85 199.86C1639.29 191.852 1634.51 180.397 1634.51 165.494C1634.51 154.817 1637.96 144.696 1644.85 135.132C1651.74 125.567 1661.19 117.893 1673.19 112.11C1685.2 106.104 1698.87 103.101 1714.21 103.101C1726.66 103.101 1738.22 104.992 1748.89 108.773C1759.56 112.332 1768.12 116.669 1774.57 121.785C1781.24 126.901 1784.57 131.795 1784.57 136.466C1784.57 141.582 1783.57 145.808 1781.57 149.145C1779.57 152.259 1777.68 153.816 1775.9 153.816C1774.35 153.816 1772.79 153.037 1771.23 151.48C1769.68 149.923 1768.34 148.589 1767.23 147.477C1763.23 142.361 1758.12 138.134 1751.89 134.798C1745.67 131.239 1739.22 128.57 1732.55 126.79C1726.1 125.011 1720.32 124.121 1715.21 124.121C1704.54 124.121 1694.87 126.234 1686.2 130.46C1677.53 134.464 1670.64 139.691 1665.52 146.142C1660.63 152.37 1658.19 159.043 1658.19 166.161C1658.19 173.724 1661.08 180.063 1666.86 185.179C1672.86 190.295 1682.75 194.41 1696.54 197.524L1732.88 206.867C1754.45 212.427 1770.34 221.102 1780.57 232.891C1791.02 244.458 1796.24 259.139 1796.24 276.933C1796.24 289.834 1792.8 301.623 1785.91 312.3C1779.24 322.977 1769.45 331.43 1756.56 337.658C1743.89 343.886 1728.33 347 1709.87 347C1691.2 347 1674.97 343.886 1661.19 337.658C1647.63 331.43 1635.62 322.421 1625.17 310.632C1624.06 309.52 1623.51 307.74 1623.51 305.294C1623.51 301.512 1624.95 297.731 1627.84 293.949C1630.73 289.946 1633.62 287.944 1636.51 287.944C1638.29 287.944 1639.62 288.722 1640.51 290.279C1645.85 298.954 1651.74 305.738 1658.19 310.632C1664.63 315.303 1671.19 318.751 1677.86 320.975C1684.53 323.2 1690.64 324.645 1696.2 325.313C1701.98 325.758 1706.65 325.98 1710.21 325.98C1721.1 325.98 1731.22 323.978 1740.55 319.974C1750.11 315.748 1757.78 310.187 1763.56 303.292C1769.57 296.174 1772.57 288.277 1772.57 279.602C1772.57 265.367 1768.68 254.245 1760.9 246.237C1753.11 238.007 1741.67 231.89 1726.55 227.887L1687.53 217.543Z" fill="#26844F"/>
<path d="M1876.67 265.923H1875.34C1871.78 273.486 1868.22 280.826 1864.67 287.944C1861.11 295.062 1857.78 301.735 1854.66 307.963C1852.88 311.522 1850.66 316.415 1847.99 322.643C1845.55 328.872 1843.66 333.876 1842.32 337.658C1841.66 339.437 1839.77 340.772 1836.66 341.662C1833.77 342.774 1830.65 343.33 1827.32 343.33C1824.21 343.33 1821.32 342.774 1818.65 341.662C1816.2 340.772 1814.98 339.215 1814.98 336.99C1814.98 335.656 1815.42 334.432 1816.31 333.32C1817.2 331.986 1818.09 330.54 1818.98 328.983C1819.87 327.203 1821.32 324.312 1823.32 320.308C1825.54 316.304 1828.76 310.298 1832.99 302.291C1837.43 294.061 1843.33 282.717 1850.66 268.258H1848.33C1845.66 268.258 1843.21 266.256 1840.99 262.253C1838.77 258.026 1837.66 254.245 1837.66 250.908C1837.66 247.572 1838.88 245.904 1841.32 245.904H1841.99C1843.99 246.126 1845.99 246.349 1847.99 246.571C1849.99 246.571 1852.33 246.571 1855 246.571H1861.33C1868.89 231.445 1876.45 216.209 1884.01 200.861C1891.57 185.29 1898.46 170.721 1904.68 157.153C1910.91 143.584 1915.8 132.24 1919.36 123.12C1920.25 121.118 1920.91 118.115 1921.36 114.112C1921.8 109.885 1922.58 107.105 1923.69 105.77C1924.8 104.436 1926.91 103.768 1930.03 103.768C1933.81 103.768 1937.7 104.769 1941.7 106.771C1945.7 108.551 1948.15 110.553 1949.04 112.777C1949.04 112.999 1949.04 113.222 1949.04 113.444C1949.26 113.667 1949.37 113.889 1949.37 114.112C1949.37 115.001 1949.15 116.113 1948.7 117.448C1948.48 118.56 1948.37 119.672 1948.37 120.785C1948.37 121.897 1948.48 122.675 1948.7 123.12C1955.15 140.247 1962.6 159.043 1971.04 179.507C1979.71 199.749 1988.72 220.213 1998.06 240.899C2007.39 261.585 2016.4 281.048 2025.07 299.288C2026.84 302.847 2029.62 307.963 2033.4 314.636C2037.18 321.309 2040.85 327.203 2044.41 332.319C2044.85 332.987 2045.19 333.654 2045.41 334.321C2045.63 334.766 2045.74 335.211 2045.74 335.656C2045.74 338.325 2043.74 340.327 2039.74 341.662C2035.74 343.219 2031.85 343.997 2028.07 343.997C2025.62 343.997 2023.4 343.664 2021.4 342.996C2019.4 342.329 2018.17 341.328 2017.73 339.993C2016.4 335.99 2014.51 330.762 2012.06 324.312C2009.62 317.639 2007.5 312.3 2005.72 308.297C2002.39 301.179 1998.94 293.727 1995.39 285.942C1991.83 277.934 1988.16 269.704 1984.38 261.252L1876.67 265.923ZM1976.05 242.234C1967.82 223.104 1959.93 204.42 1952.37 186.18C1944.81 167.941 1938.7 152.704 1934.03 140.47C1930.25 148.922 1925.69 158.932 1920.36 170.499C1915.24 182.065 1909.69 194.299 1903.68 207.2C1897.68 220.101 1891.57 233.003 1885.34 245.904L1976.05 242.234Z" fill="#26844F"/>
<path d="M2223.29 142.472C2223.29 139.358 2223.18 135.465 2222.96 130.794C2222.74 126.123 2222.51 121.674 2222.29 117.448C2222.29 113.222 2222.29 110.219 2222.29 108.439C2222.29 107.105 2223.07 106.104 2224.62 105.437C2226.4 104.769 2228.4 104.436 2230.63 104.436C2234.41 104.436 2238.19 105.214 2241.96 106.771C2245.97 108.328 2247.97 110.553 2247.97 113.444C2247.97 116.113 2247.86 120.228 2247.63 125.789C2247.41 131.35 2247.3 137.022 2247.3 142.805V264.255C2247.3 280.715 2243.63 295.173 2236.3 307.629C2228.96 320.085 2218.73 329.761 2205.62 336.657C2192.5 343.552 2177.16 347 2159.6 347C2132.7 347 2112.8 340.883 2099.91 328.649C2087.23 316.193 2080.9 298.287 2080.9 274.931V145.475C2080.9 138.579 2080.68 131.795 2080.23 125.122C2080.01 118.227 2079.9 112.888 2079.9 109.107C2079.9 107.772 2080.68 106.771 2082.23 106.104C2084.01 105.437 2086.01 105.103 2088.24 105.103C2092.01 105.103 2095.79 105.881 2099.57 107.438C2103.57 108.996 2105.58 111.22 2105.58 114.112C2105.58 116.781 2105.46 121.341 2105.24 127.791C2105.02 134.242 2104.91 140.359 2104.91 146.142V270.928C2104.91 291.169 2109.58 305.405 2118.91 313.635C2128.47 321.865 2142.04 325.98 2159.6 325.98C2172.05 325.98 2183.05 323.2 2192.61 317.639C2202.17 311.855 2209.62 304.07 2214.95 294.283C2220.51 284.274 2223.29 272.929 2223.29 260.251V142.472Z" fill="#26844F"/>
<path d="M2338.66 343.664C2326.65 343.664 2317.87 343.219 2312.31 342.329C2306.76 341.439 2303.2 340.438 2301.64 339.326C2300.09 337.991 2299.31 336.879 2299.31 335.99C2299.31 333.988 2300.64 332.431 2303.31 331.318C2305.98 330.206 2310.76 329.65 2317.65 329.65V132.129C2314.54 131.461 2311.54 129.571 2308.65 126.457C2305.76 123.12 2304.31 120.228 2304.31 117.782C2304.31 115.78 2305.09 114.445 2306.65 113.778C2309.98 112.443 2314.65 111.22 2320.65 110.108C2326.88 108.773 2333.66 107.661 2340.99 106.771C2348.55 105.659 2356 104.88 2363.33 104.436C2370.89 103.768 2377.56 103.435 2383.34 103.435C2400.02 103.435 2415.69 106.215 2430.36 111.776C2445.26 117.337 2458.37 125.344 2469.71 135.799C2481.27 146.031 2490.28 158.487 2496.72 173.168C2503.39 187.626 2506.73 203.864 2506.73 221.881C2506.73 239.898 2503.84 255.802 2498.06 269.593C2492.28 283.161 2484.61 294.728 2475.05 304.293C2465.49 313.635 2454.82 321.086 2443.03 326.647C2431.25 332.208 2419.25 336.101 2407.02 338.325C2395.68 340.327 2384.79 341.662 2374.34 342.329C2363.89 342.996 2353.55 343.441 2343.33 343.664H2338.66ZM2340.99 327.648C2373.67 326.981 2400.46 321.976 2421.36 312.634C2442.48 303.292 2458.04 290.724 2468.04 274.931C2478.05 259.139 2483.05 241.344 2483.05 221.547C2483.05 205.977 2480.05 192.186 2474.05 180.174C2468.27 167.941 2460.49 157.709 2450.7 149.479C2440.92 141.026 2430.03 134.687 2418.02 130.46C2406.02 126.012 2393.9 123.787 2381.68 123.787C2367.45 123.787 2353.89 125.567 2340.99 129.126V327.648Z" fill="#26844F"/>
<path d="M2716.99 341.662C2715.21 341.439 2711.32 341.217 2705.32 340.994C2699.54 340.772 2693.76 340.661 2687.98 340.661H2682.65L2589.94 341.995C2586.38 341.995 2583.27 342.329 2580.6 342.996C2578.16 343.886 2575.27 344.331 2571.93 344.331C2568.82 344.331 2565.71 342.44 2562.6 338.659C2559.48 334.655 2557.93 331.318 2557.93 328.649C2557.93 327.092 2558.26 324.757 2558.93 321.643C2559.82 318.528 2560.26 315.637 2560.26 312.968V226.218C2557.82 224.884 2555.7 222.437 2553.93 218.878C2552.15 215.319 2551.26 212.316 2551.26 209.869C2551.26 207.423 2552.15 206.199 2553.93 206.199H2554.59C2555.48 206.422 2556.37 206.644 2557.26 206.867C2558.37 206.867 2559.37 206.867 2560.26 206.867V139.469C2560.26 135.91 2560.26 132.574 2560.26 129.459C2560.26 126.123 2560.04 123.12 2559.6 120.451C2559.37 118.449 2559.15 116.892 2558.93 115.78C2558.93 114.445 2558.93 113.333 2558.93 112.443C2558.93 110.219 2559.48 108.884 2560.6 108.439C2561.71 107.995 2562.71 107.772 2563.6 107.772C2566.71 107.772 2570.38 108.439 2574.6 109.774C2578.83 111.109 2581.05 111.887 2581.27 112.11L2671.64 106.104C2676.75 105.659 2682.09 105.103 2687.65 104.436C2693.43 103.768 2697.32 103.435 2699.32 103.435C2702.43 103.435 2705.1 105.437 2707.32 109.44C2709.55 113.222 2710.66 116.669 2710.66 119.784C2710.66 123.565 2709.21 125.456 2706.32 125.456H2692.32C2688.98 125.456 2685.54 125.456 2681.98 125.456C2678.42 125.456 2675.09 125.567 2671.97 125.789L2582.94 131.795V206.533L2653.3 202.195C2658.41 201.751 2663.75 201.194 2669.31 200.527C2675.09 199.86 2678.98 199.526 2680.98 199.526C2684.09 199.526 2686.76 201.528 2688.98 205.532C2691.2 209.313 2692.32 212.872 2692.32 216.209C2692.32 219.99 2690.87 221.881 2687.98 221.881H2673.98C2670.64 221.881 2667.19 221.881 2663.64 221.881C2660.08 221.881 2656.75 221.992 2653.63 222.214L2582.94 226.218V321.309L2682.31 319.641C2687.2 319.641 2692.21 319.529 2697.32 319.307C2702.43 319.085 2706.66 318.862 2709.99 318.64H2710.32C2713.21 318.64 2715.66 320.753 2717.66 324.979C2719.88 328.983 2720.99 332.764 2720.99 336.323C2720.99 339.882 2719.77 341.662 2717.33 341.662H2716.99Z" fill="#26844F"/>
<path d="M2196.32 82.6462C2187.37 86.7048 2178.41 90.6507 2169.46 94.4839C2160.68 98.3171 2153.19 102.488 2146.98 106.998C2145.88 107.675 2144.87 108.013 2143.96 108.013C2142.68 108.013 2141.58 107.449 2140.67 106.322C2139.76 105.194 2139.3 103.841 2139.3 102.263C2139.3 100.91 2140.4 98.8808 2142.59 96.175C2144.78 93.2438 2148.8 89.0724 2154.65 83.6608C2160.68 78.0238 2169.27 70.583 2180.42 61.3382C2180.79 61.1127 2181.33 61 2182.07 61C2183.89 61 2186 62.1274 2188.37 64.3822C2190.93 66.4116 2193.21 68.8918 2195.23 71.8231C2197.24 74.5289 2198.24 77.0092 2198.24 79.264C2198.24 80.8423 2197.6 81.9697 2196.32 82.6462Z" fill="#26844F"/>
</svg>
