<svg width="932" height="577" viewBox="0 0 932 577" fill="none" xmlns="http://www.w3.org/2000/svg">
<path d="M534 208.458C494.735 211.703 458.372 231.707 426.434 250.023C408.537 260.287 392.077 270.032 376.184 277.325C360.809 284.381 347.066 288.598 334.475 288.854L333.26 288.866C320.463 288.866 307.523 284.677 293.745 277.567C279.877 270.411 266.062 260.796 251.231 250.558C222.67 230.84 189.655 208 152 208V232C180.845 232 207.589 249.593 237.597 270.309C252.051 280.287 267.224 290.889 282.739 298.896C298.345 306.948 315.186 312.866 333.26 312.866L334.101 312.862C351.765 312.683 369.291 306.894 386.193 299.138C403.341 291.269 421.019 280.795 438.373 270.843C470.392 252.48 501.75 235.748 534 232.551V276.458C494.735 279.703 458.372 299.707 426.434 318.023C408.537 328.287 392.077 338.032 376.184 345.325C360.809 352.381 347.066 356.598 334.475 356.854L333.26 356.867C320.463 356.867 307.523 352.677 293.745 345.567C279.877 338.411 266.062 328.796 251.231 318.558C222.67 298.84 189.655 276 152 276V300C180.845 300 207.589 317.593 237.597 338.309C252.051 348.287 267.224 358.889 282.739 366.896C298.345 374.948 315.186 380.867 333.26 380.867L334.101 380.862C351.765 380.683 369.291 374.894 386.193 367.138C403.341 359.269 421.019 348.795 438.373 338.843C470.392 320.48 501.75 303.748 534 300.551V336.458C494.735 339.703 458.372 359.707 426.434 378.023C408.537 388.287 392.077 398.032 376.184 405.325C360.809 412.381 347.066 416.598 334.475 416.854L333.26 416.867C320.463 416.867 307.523 412.677 293.745 405.567C279.877 398.411 266.062 388.796 251.231 378.558C222.67 358.84 189.655 336 152 336V360C180.845 360 207.589 377.593 237.597 398.309C252.051 408.287 267.224 418.889 282.739 426.896C298.345 434.948 315.186 440.867 333.26 440.867L334.101 440.862C351.765 440.683 369.291 434.894 386.193 427.138C403.341 419.269 421.019 408.795 438.373 398.843C470.392 380.48 501.75 363.748 534 360.551V531H43V45H534V208.458ZM932 360C891.886 360 864.479 378.072 837.192 398.106C810.951 417.374 782.81 440.502 744.628 440.862L743.725 440.867C705.55 440.867 672.499 418.071 642.235 398.512C610.658 378.104 580.706 360 544.924 360C541.27 360 537.629 360.191 534 360.551V336.458C537.617 336.159 541.259 336 544.924 336C588.718 336 624.278 358.331 655.263 378.355C687.561 399.229 714.124 416.867 743.725 416.867L745.084 416.854C773.531 416.332 794.815 399.446 822.988 378.761C850.771 358.362 883.614 336 932 336V360ZM932 300C891.886 300 864.479 318.072 837.192 338.106C810.951 357.374 782.81 380.502 744.628 380.862L743.725 380.867C705.55 380.867 672.499 358.071 642.235 338.512C610.658 318.104 580.706 300 544.924 300C541.27 300 537.629 300.191 534 300.551V276.458C537.617 276.159 541.259 276 544.924 276C588.718 276 624.278 298.331 655.263 318.355C687.561 339.229 714.124 356.867 743.725 356.867L745.084 356.854C773.531 356.332 794.815 339.446 822.988 318.761C850.771 298.362 883.614 276 932 276V300ZM932 232C891.886 232 864.479 250.072 837.192 270.106C810.951 289.374 782.81 312.502 744.628 312.862L743.725 312.866C705.55 312.866 672.499 290.071 642.235 270.512C610.658 250.104 580.706 232 544.924 232C541.27 232 537.629 232.191 534 232.551V208.458C537.617 208.159 541.259 208 544.924 208C588.718 208 624.278 230.33 655.263 250.354C687.561 271.229 714.124 288.866 743.725 288.866L745.084 288.854C773.531 288.332 794.815 271.446 822.988 250.761C850.771 230.362 883.614 208 932 208V232Z" fill="#26844F"/>
<mask id="path-2-inside-1_81_24" fill="white">
<rect width="577" height="577" rx="12"/>
</mask>
<rect width="577" height="577" rx="12" stroke="#26844F" stroke-width="40" mask="url(#path-2-inside-1_81_24)"/>
</svg>
