<svg width="2725" height="467" viewBox="0 0 2725 467" fill="none" xmlns="http://www.w3.org/2000/svg">
<path d="M437 144.05C427.261 144.444 417.761 147.799 409.066 151.855C400.01 156.081 390.693 161.633 381.978 166.689C363.5 177.41 347.708 185.713 333.111 185.515C317.935 185.308 301.618 177.637 283.464 168.241C274.819 163.767 265.683 158.891 256.952 155.155C248.246 151.43 238.867 148.346 229.49 148.02L228.69 171.006C233.848 171.185 240.138 172.979 247.904 176.302C255.645 179.614 263.786 183.955 272.892 188.668C290.238 197.646 311.319 208.221 332.799 208.513C354.858 208.812 376.233 196.614 393.521 186.584C402.688 181.265 410.905 176.379 418.792 172.699C425.963 169.354 431.934 167.469 437 167.084V202.05C427.261 202.444 417.761 205.799 409.066 209.855C400.01 214.081 390.693 219.633 381.978 224.689C363.5 235.41 347.708 243.713 333.111 243.515C317.935 243.308 301.618 235.637 283.464 226.241C274.819 221.767 265.683 216.891 256.952 213.155C248.246 209.43 238.867 206.346 229.49 206.02L228.69 229.006C233.848 229.185 240.138 230.979 247.904 234.302C255.645 237.614 263.786 241.955 272.892 246.668C290.238 255.646 311.319 266.221 332.799 266.513C354.858 266.812 376.233 254.614 393.521 244.584C402.688 239.265 410.905 234.379 418.792 230.699C425.963 227.354 431.934 225.469 437 225.084V260.05C427.261 260.444 417.761 263.799 409.066 267.855C400.01 272.081 390.693 277.633 381.978 282.689C363.5 293.41 347.708 301.713 333.111 301.515C317.935 301.308 301.618 293.637 283.464 284.241C274.819 279.767 265.683 274.891 256.952 271.155C248.246 267.43 238.867 264.346 229.49 264.02L228.69 287.006C233.848 287.185 240.138 288.979 247.904 292.302C255.645 295.614 263.786 299.955 272.892 304.668C290.238 313.646 311.319 324.221 332.799 324.513C354.858 324.812 376.233 312.614 393.521 302.584C402.688 297.265 410.905 292.379 418.792 288.699C425.963 285.354 431.934 283.469 437 283.084V434H37V34H437V144.05ZM438.159 260.017C448.506 259.852 458.317 263.256 467.132 267.497C475.915 271.723 484.849 277.37 493.15 282.464C510.722 293.246 526.006 301.714 541.512 301.514C557.885 301.303 575.926 293.449 594.27 284.292C602.986 279.941 612.052 275.164 620.026 271.638C627.782 268.208 636.458 265.023 644.543 265.023L644.544 276.523L644.543 288.023C641.686 288.024 636.868 289.338 629.328 292.672C622.007 295.909 613.975 300.162 604.543 304.871C586.589 313.834 564.13 324.225 541.809 324.513C518.619 324.812 497.771 312.283 481.122 302.067C472.313 296.662 464.614 291.809 457.16 288.223C449.738 284.652 443.707 282.931 438.526 283.014C438.027 283.022 437.518 283.045 437 283.084V260.05C437.386 260.034 437.772 260.023 438.159 260.017ZM438.159 202.017C448.506 201.852 458.317 205.256 467.132 209.497C475.915 213.723 484.849 219.37 493.15 224.464C510.722 235.246 526.006 243.714 541.512 243.514C557.885 243.303 575.926 235.449 594.27 226.292C602.986 221.941 612.052 217.164 620.026 213.638C627.782 210.208 636.458 207.023 644.543 207.023L644.544 218.523L644.543 230.023C641.686 230.024 636.868 231.338 629.328 234.672C622.007 237.909 613.975 242.162 604.543 246.871C586.589 255.834 564.13 266.225 541.809 266.513C518.619 266.812 497.771 254.283 481.122 244.067C472.313 238.662 464.614 233.809 457.16 230.223C449.738 226.652 443.707 224.931 438.526 225.014C438.027 225.022 437.518 225.045 437 225.084V202.05C437.386 202.034 437.772 202.023 438.159 202.017ZM438.159 144.017C448.506 143.852 458.317 147.256 467.132 151.497C475.915 155.723 484.849 161.37 493.15 166.464C510.722 177.246 526.006 185.714 541.512 185.514C557.885 185.303 575.926 177.449 594.27 168.292C602.986 163.941 612.052 159.164 620.026 155.638C627.782 152.208 636.458 149.023 644.543 149.023L644.544 160.523L644.543 172.023C641.686 172.024 636.868 173.338 629.328 176.672C622.007 179.909 613.975 184.162 604.543 188.871C586.589 197.834 564.13 208.225 541.809 208.513C518.619 208.812 497.771 196.283 481.122 186.067C472.313 180.662 464.614 175.809 457.16 172.223C449.738 168.652 443.707 166.931 438.526 167.014C438.027 167.022 437.518 167.045 437 167.084V144.05C437.386 144.034 437.772 144.023 438.159 144.017Z" fill="white"/>
<rect x="7.5" y="7.5" width="458" height="452" stroke="white" stroke-width="15"/>
<path d="M769 151.474C769 144.578 768.778 137.905 768.333 131.455C768.111 125.004 768 119.888 768 116.107C768 113.882 770.445 112.77 775.336 112.77C779.116 112.77 783.229 113.66 787.675 115.439C792.121 116.996 794.344 119.221 794.344 122.112C794.344 124.782 794.233 129.008 794.011 134.791C793.788 140.352 793.677 146.024 793.677 151.807V312.627C793.677 319.523 793.788 326.196 794.011 332.646C794.455 339.097 794.678 344.213 794.678 347.994C794.678 350.219 792.232 351.331 787.341 351.331C783.562 351.331 779.449 350.441 775.003 348.662C770.557 347.105 768.333 344.88 768.333 341.989C768.333 339.319 768.445 335.204 768.667 329.643C768.889 323.86 769 318.077 769 312.294V151.474Z" fill="white"/>
<path d="M867.278 141.798H866.944C863.61 141.798 860.275 139.796 856.94 135.792C853.606 131.788 851.938 128.341 851.938 125.449C851.938 123.225 852.939 122.001 854.94 121.779C868.945 119.11 880.061 117.108 888.287 115.773C896.512 114.216 903.182 113.104 908.295 112.437C913.63 111.547 918.521 111.102 922.968 111.102C927.414 110.88 932.638 110.768 938.641 110.768C967.764 110.768 989.217 115.662 1003 125.449C1016.78 135.014 1023.68 148.36 1023.68 165.487C1023.68 185.061 1017.45 200.632 1005 212.198C992.774 223.765 976.434 231.661 955.981 235.888C949.756 237.222 941.531 238.445 931.304 239.558C921.3 240.67 912.074 241.226 903.626 241.226C901.848 241.226 900.069 241.226 898.291 241.226C896.735 241.226 895.289 241.115 893.956 240.892C892.622 240.447 891.51 240.003 890.621 239.558V309.624C890.621 317.187 890.732 324.639 890.954 331.979C891.399 339.097 891.621 344.547 891.621 348.328C891.621 350.552 889.287 351.664 884.618 351.664C881.061 351.664 877.171 350.775 872.947 348.995C868.723 347.438 866.611 345.214 866.611 342.322C866.611 339.653 866.722 335.093 866.944 328.643C867.167 322.192 867.278 315.741 867.278 309.291V141.798ZM890.621 227.213C891.288 226.768 891.955 226.434 892.622 226.212C893.289 225.989 894.067 225.878 894.956 225.878C915.409 224.543 932.194 221.985 945.31 218.204C958.427 214.423 968.653 210.085 975.989 205.192C983.548 200.076 988.995 195.071 992.33 190.177C995.664 185.061 997.665 180.501 998.332 176.498C999.221 172.271 999.666 169.268 999.666 167.489C999.666 155.033 994.219 146.024 983.326 140.463C972.655 134.68 957.537 131.788 937.974 131.788C929.97 131.788 921.856 132.456 913.63 133.79C905.405 134.902 897.735 136.459 890.621 138.461V227.213Z" fill="white"/>
<path d="M1230.15 348.662C1228.37 348.439 1224.48 348.217 1218.48 347.994C1212.7 347.772 1206.92 347.661 1201.14 347.661H1195.8L1103.1 348.995C1099.54 348.995 1096.43 349.329 1093.76 349.996C1091.31 350.886 1088.42 351.331 1085.09 351.331C1081.98 351.331 1078.86 349.44 1075.75 345.659C1072.64 341.655 1071.08 338.318 1071.08 335.649C1071.08 334.092 1071.42 331.757 1072.08 328.643C1072.97 325.528 1073.42 322.637 1073.42 319.968V233.218C1070.97 231.884 1068.86 229.437 1067.08 225.878C1065.3 222.319 1064.41 219.316 1064.41 216.869C1064.41 214.423 1065.3 213.199 1067.08 213.199H1067.75C1068.64 213.422 1069.53 213.644 1070.42 213.867C1071.53 213.867 1072.53 213.867 1073.42 213.867V146.469C1073.42 142.91 1073.42 139.574 1073.42 136.459C1073.42 133.123 1073.2 130.12 1072.75 127.451C1072.53 125.449 1072.31 123.892 1072.08 122.78C1072.08 121.445 1072.08 120.333 1072.08 119.443C1072.08 117.219 1072.64 115.884 1073.75 115.439C1074.86 114.995 1075.86 114.772 1076.75 114.772C1079.86 114.772 1083.53 115.439 1087.76 116.774C1091.98 118.109 1094.2 118.887 1094.43 119.11L1184.8 113.104C1189.91 112.659 1195.25 112.103 1200.8 111.436C1206.58 110.768 1210.47 110.435 1212.47 110.435C1215.59 110.435 1218.26 112.437 1220.48 116.44C1222.7 120.222 1223.81 123.669 1223.81 126.784C1223.81 130.565 1222.37 132.456 1219.48 132.456H1205.47C1202.14 132.456 1198.69 132.456 1195.13 132.456C1191.58 132.456 1188.24 132.567 1185.13 132.789L1096.09 138.795V213.533L1166.46 209.195C1171.57 208.751 1176.9 208.194 1182.46 207.527C1188.24 206.86 1192.13 206.526 1194.13 206.526C1197.25 206.526 1199.91 208.528 1202.14 212.532C1204.36 216.313 1205.47 219.872 1205.47 223.209C1205.47 226.99 1204.03 228.881 1201.14 228.881H1187.13C1183.8 228.881 1180.35 228.881 1176.79 228.881C1173.24 228.881 1169.9 228.992 1166.79 229.214L1096.09 233.218V328.309L1195.47 326.641C1200.36 326.641 1205.36 326.529 1210.47 326.307C1215.59 326.085 1219.81 325.862 1223.15 325.64H1223.48C1226.37 325.64 1228.82 327.753 1230.82 331.979C1233.04 335.983 1234.15 339.764 1234.15 343.323C1234.15 346.882 1232.93 348.662 1230.48 348.662H1230.15Z" fill="white"/>
<path d="M1439.47 151.474C1439.47 144.578 1439.24 137.905 1438.8 131.455C1438.36 125.004 1438.13 119.888 1438.13 116.107C1438.13 113.882 1440.47 112.77 1445.14 112.77C1448.92 112.77 1452.81 113.66 1456.81 115.439C1461.03 116.996 1463.14 119.221 1463.14 122.112C1463.14 124.782 1463.03 129.008 1462.81 134.791C1462.59 140.352 1462.48 146.024 1462.48 151.807V318.967C1462.48 320.969 1462.7 324.083 1463.14 328.309C1463.59 332.313 1463.81 335.316 1463.81 337.317C1463.81 339.542 1462.7 341.877 1460.48 344.324C1458.47 346.548 1455.92 348.439 1452.81 349.996C1449.69 351.553 1446.8 352.332 1444.14 352.332C1440.58 352.332 1437.69 350.775 1435.47 347.661C1433.46 344.547 1431.57 341.766 1429.8 339.319C1420.24 325.751 1410.12 311.181 1399.45 295.611C1388.78 280.041 1378.11 264.137 1367.44 247.899C1356.77 231.661 1346.43 215.646 1336.42 199.853C1326.64 184.06 1317.53 169.046 1309.08 154.81V312.961C1309.08 319.856 1309.19 326.529 1309.41 332.98C1309.86 339.431 1310.08 344.547 1310.08 348.328C1310.08 349.44 1309.41 350.219 1308.08 350.664C1306.75 351.331 1305.19 351.664 1303.41 351.664C1299.85 351.664 1295.96 350.775 1291.74 348.995C1287.52 347.438 1285.4 345.214 1285.4 342.322C1285.4 339.653 1285.51 335.538 1285.74 329.977C1285.96 324.194 1286.07 318.411 1286.07 312.627V134.124C1286.07 132.122 1285.63 130.009 1284.74 127.785C1284.07 125.338 1283.74 123.336 1283.74 121.779C1283.74 120.889 1283.85 120.333 1284.07 120.111C1285.18 117.664 1287.85 115.662 1292.07 114.105C1296.52 112.548 1300.41 111.769 1303.74 111.769C1305.08 111.769 1306.08 111.88 1306.75 112.103C1308.75 112.325 1310.19 113.326 1311.08 115.106C1312.19 116.885 1313.3 118.665 1314.42 120.444C1328.42 143.8 1342.54 166.933 1356.77 189.844C1371.22 212.754 1385.44 234.775 1399.45 255.907C1413.68 276.815 1427.02 295.945 1439.47 313.295V151.474Z" fill="white"/>
<path d="M1691.53 224.543C1675.31 220.762 1662.41 214.867 1652.85 206.86C1643.29 198.852 1638.51 187.397 1638.51 172.494C1638.51 161.817 1641.96 151.696 1648.85 142.132C1655.74 132.567 1665.19 124.893 1677.2 119.11C1689.2 113.104 1702.87 110.101 1718.21 110.101C1730.66 110.101 1742.22 111.992 1752.89 115.773C1763.56 119.332 1772.12 123.669 1778.57 128.785C1785.24 133.901 1788.57 138.795 1788.57 143.466C1788.57 148.582 1787.57 152.808 1785.57 156.145C1783.57 159.259 1781.68 160.816 1779.9 160.816C1778.35 160.816 1776.79 160.037 1775.24 158.48C1773.68 156.923 1772.35 155.589 1771.23 154.477C1767.23 149.361 1762.12 145.134 1755.89 141.798C1749.67 138.239 1743.22 135.57 1736.55 133.79C1730.11 132.011 1724.33 131.121 1719.21 131.121C1708.54 131.121 1698.87 133.234 1690.2 137.46C1681.53 141.464 1674.64 146.691 1669.53 153.142C1664.63 159.37 1662.19 166.043 1662.19 173.161C1662.19 180.724 1665.08 187.063 1670.86 192.179C1676.86 197.295 1686.75 201.41 1700.54 204.524L1736.89 213.867C1758.45 219.427 1774.35 228.102 1784.57 239.891C1795.02 251.458 1800.25 266.139 1800.25 283.933C1800.25 296.834 1796.8 308.623 1789.91 319.3C1783.24 329.977 1773.46 338.43 1760.56 344.658C1747.89 350.886 1732.33 354 1713.88 354C1695.2 354 1678.97 350.886 1665.19 344.658C1651.63 338.43 1639.62 329.421 1629.18 317.632C1628.06 316.52 1627.51 314.74 1627.51 312.294C1627.51 308.512 1628.95 304.731 1631.84 300.949C1634.73 296.946 1637.62 294.944 1640.51 294.944C1642.29 294.944 1643.63 295.722 1644.52 297.279C1649.85 305.954 1655.74 312.738 1662.19 317.632C1668.64 322.303 1675.19 325.751 1681.86 327.975C1688.53 330.2 1694.65 331.645 1700.2 332.313C1705.99 332.758 1710.65 332.98 1714.21 332.98C1725.1 332.98 1735.22 330.978 1744.56 326.974C1754.12 322.748 1761.79 317.187 1767.57 310.292C1773.57 303.174 1776.57 295.277 1776.57 286.602C1776.57 272.367 1772.68 261.245 1764.9 253.237C1757.12 245.007 1745.67 238.89 1730.55 234.887L1691.53 224.543Z" fill="white"/>
<path d="M1880.68 272.923H1879.34C1875.78 280.486 1872.23 287.826 1868.67 294.944C1865.11 302.062 1861.78 308.735 1858.67 314.963C1856.89 318.522 1854.66 323.415 1852 329.643C1849.55 335.872 1847.66 340.876 1846.33 344.658C1845.66 346.437 1843.77 347.772 1840.66 348.662C1837.77 349.774 1834.66 350.33 1831.32 350.33C1828.21 350.33 1825.32 349.774 1822.65 348.662C1820.21 347.772 1818.98 346.215 1818.98 343.99C1818.98 342.656 1819.43 341.432 1820.32 340.32C1821.21 338.986 1822.1 337.54 1822.98 335.983C1823.87 334.203 1825.32 331.312 1827.32 327.308C1829.54 323.304 1832.77 317.298 1836.99 309.291C1841.44 301.061 1847.33 289.717 1854.66 275.258H1852.33C1849.66 275.258 1847.22 273.256 1844.99 269.253C1842.77 265.026 1841.66 261.245 1841.66 257.908C1841.66 254.572 1842.88 252.904 1845.33 252.904H1845.99C1848 253.126 1850 253.349 1852 253.571C1854 253.571 1856.33 253.571 1859 253.571H1865.34C1872.89 238.445 1880.45 223.209 1888.01 207.861C1895.57 192.29 1902.46 177.721 1908.69 164.153C1914.91 150.584 1919.8 139.24 1923.36 130.12C1924.25 128.118 1924.92 125.115 1925.36 121.112C1925.8 116.885 1926.58 114.105 1927.69 112.77C1928.81 111.436 1930.92 110.768 1934.03 110.768C1937.81 110.768 1941.7 111.769 1945.7 113.771C1949.7 115.551 1952.15 117.553 1953.04 119.777C1953.04 119.999 1953.04 120.222 1953.04 120.444C1953.26 120.667 1953.37 120.889 1953.37 121.112C1953.37 122.001 1953.15 123.113 1952.7 124.448C1952.48 125.56 1952.37 126.672 1952.37 127.785C1952.37 128.897 1952.48 129.675 1952.7 130.12C1959.15 147.247 1966.6 166.043 1975.05 186.507C1983.72 206.749 1992.72 227.213 2002.06 247.899C2011.4 268.585 2020.4 288.048 2029.07 306.288C2030.85 309.847 2033.63 314.963 2037.41 321.636C2041.19 328.309 2044.85 334.203 2048.41 339.319C2048.86 339.987 2049.19 340.654 2049.41 341.321C2049.63 341.766 2049.74 342.211 2049.74 342.656C2049.74 345.325 2047.74 347.327 2043.74 348.662C2039.74 350.219 2035.85 350.997 2032.07 350.997C2029.63 350.997 2027.4 350.664 2025.4 349.996C2023.4 349.329 2022.18 348.328 2021.73 346.993C2020.4 342.99 2018.51 337.762 2016.06 331.312C2013.62 324.639 2011.51 319.3 2009.73 315.297C2006.39 308.179 2002.95 300.727 1999.39 292.942C1995.83 284.934 1992.17 276.704 1988.39 268.252L1880.68 272.923ZM1980.05 249.234C1971.82 230.104 1963.93 211.42 1956.37 193.18C1948.81 174.941 1942.7 159.704 1938.03 147.47C1934.25 155.922 1929.7 165.932 1924.36 177.499C1919.25 189.065 1913.69 201.299 1907.69 214.2C1901.68 227.101 1895.57 240.003 1889.35 252.904L1980.05 249.234Z" fill="white"/>
<path d="M2227.29 149.472C2227.29 146.358 2227.18 142.465 2226.96 137.794C2226.74 133.123 2226.52 128.674 2226.29 124.448C2226.29 120.222 2226.29 117.219 2226.29 115.439C2226.29 114.105 2227.07 113.104 2228.63 112.437C2230.41 111.769 2232.41 111.436 2234.63 111.436C2238.41 111.436 2242.19 112.214 2245.97 113.771C2249.97 115.328 2251.97 117.553 2251.97 120.444C2251.97 123.113 2251.86 127.228 2251.64 132.789C2251.42 138.35 2251.3 144.022 2251.3 149.805V271.255C2251.3 287.715 2247.64 302.173 2240.3 314.629C2232.96 327.085 2222.74 336.761 2209.62 343.657C2196.5 350.552 2181.16 354 2163.6 354C2136.7 354 2116.8 347.883 2103.91 335.649C2091.24 323.193 2084.9 305.287 2084.9 281.931V152.475C2084.9 145.579 2084.68 138.795 2084.24 132.122C2084.01 125.227 2083.9 119.888 2083.9 116.107C2083.9 114.772 2084.68 113.771 2086.24 113.104C2088.02 112.437 2090.02 112.103 2092.24 112.103C2096.02 112.103 2099.8 112.881 2103.58 114.438C2107.58 115.996 2109.58 118.22 2109.58 121.112C2109.58 123.781 2109.47 128.341 2109.25 134.791C2109.02 141.242 2108.91 147.359 2108.91 153.142V277.928C2108.91 298.169 2113.58 312.405 2122.92 320.635C2132.48 328.865 2146.04 332.98 2163.6 332.98C2176.05 332.98 2187.06 330.2 2196.62 324.639C2206.17 318.855 2213.62 311.07 2218.96 301.283C2224.52 291.274 2227.29 279.929 2227.29 267.251V149.472Z" fill="white"/>
<path d="M2342.66 350.664C2330.66 350.664 2321.88 350.219 2316.32 349.329C2310.76 348.439 2307.2 347.438 2305.65 346.326C2304.09 344.991 2303.31 343.879 2303.31 342.99C2303.31 340.988 2304.65 339.431 2307.31 338.318C2309.98 337.206 2314.76 336.65 2321.65 336.65V139.129C2318.54 138.461 2315.54 136.571 2312.65 133.457C2309.76 130.12 2308.31 127.228 2308.31 124.782C2308.31 122.78 2309.09 121.445 2310.65 120.778C2313.98 119.443 2318.65 118.22 2324.66 117.108C2330.88 115.773 2337.66 114.661 2345 113.771C2352.56 112.659 2360 111.88 2367.34 111.436C2374.9 110.768 2381.57 110.435 2387.35 110.435C2404.02 110.435 2419.69 113.215 2434.37 118.776C2449.26 124.337 2462.38 132.344 2473.72 142.799C2485.28 153.031 2494.28 165.487 2500.73 180.168C2507.4 194.626 2510.73 210.864 2510.73 228.881C2510.73 246.898 2507.84 262.802 2502.06 276.593C2496.28 290.161 2488.61 301.728 2479.05 311.293C2469.49 320.635 2458.82 328.086 2447.04 333.647C2435.26 339.208 2423.25 343.101 2411.02 345.325C2399.69 347.327 2388.79 348.662 2378.34 349.329C2367.9 349.996 2357.56 350.441 2347.33 350.664H2342.66ZM2345 334.648C2377.68 333.981 2404.47 328.976 2425.36 319.634C2446.48 310.292 2462.05 297.724 2472.05 281.931C2482.05 266.139 2487.06 248.344 2487.06 228.547C2487.06 212.977 2484.05 199.186 2478.05 187.174C2472.27 174.941 2464.49 164.709 2454.71 156.479C2444.93 148.026 2434.03 141.687 2422.03 137.46C2410.02 133.012 2397.91 130.787 2385.68 130.787C2371.45 130.787 2357.89 132.567 2345 136.126V334.648Z" fill="white"/>
<path d="M2721 348.662C2719.22 348.439 2715.33 348.217 2709.33 347.994C2703.55 347.772 2697.77 347.661 2691.99 347.661H2686.65L2593.95 348.995C2590.39 348.995 2587.28 349.329 2584.61 349.996C2582.16 350.886 2579.27 351.331 2575.94 351.331C2572.83 351.331 2569.71 349.44 2566.6 345.659C2563.49 341.655 2561.93 338.318 2561.93 335.649C2561.93 334.092 2562.27 331.757 2562.93 328.643C2563.82 325.528 2564.27 322.637 2564.27 319.968V233.218C2561.82 231.884 2559.71 229.437 2557.93 225.878C2556.15 222.319 2555.26 219.316 2555.26 216.869C2555.26 214.423 2556.15 213.199 2557.93 213.199H2558.6C2559.49 213.422 2560.38 213.644 2561.27 213.867C2562.38 213.867 2563.38 213.867 2564.27 213.867V146.469C2564.27 142.91 2564.27 139.574 2564.27 136.459C2564.27 133.123 2564.04 130.12 2563.6 127.451C2563.38 125.449 2563.16 123.892 2562.93 122.78C2562.93 121.445 2562.93 120.333 2562.93 119.443C2562.93 117.219 2563.49 115.884 2564.6 115.439C2565.71 114.995 2566.71 114.772 2567.6 114.772C2570.71 114.772 2574.38 115.439 2578.61 116.774C2582.83 118.109 2585.05 118.887 2585.28 119.11L2675.65 113.104C2680.76 112.659 2686.1 112.103 2691.65 111.436C2697.43 110.768 2701.32 110.435 2703.32 110.435C2706.44 110.435 2709.1 112.437 2711.33 116.44C2713.55 120.222 2714.66 123.669 2714.66 126.784C2714.66 130.565 2713.22 132.456 2710.33 132.456H2696.32C2692.99 132.456 2689.54 132.456 2685.98 132.456C2682.43 132.456 2679.09 132.567 2675.98 132.789L2586.94 138.795V213.533L2657.31 209.195C2662.42 208.751 2667.75 208.194 2673.31 207.527C2679.09 206.86 2682.98 206.526 2684.98 206.526C2688.1 206.526 2690.76 208.528 2692.99 212.532C2695.21 216.313 2696.32 219.872 2696.32 223.209C2696.32 226.99 2694.88 228.881 2691.99 228.881H2677.98C2674.65 228.881 2671.2 228.881 2667.64 228.881C2664.09 228.881 2660.75 228.992 2657.64 229.214L2586.94 233.218V328.309L2686.32 326.641C2691.21 326.641 2696.21 326.529 2701.32 326.307C2706.44 326.085 2710.66 325.862 2714 325.64H2714.33C2717.22 325.64 2719.66 327.753 2721.67 331.979C2723.89 335.983 2725 339.764 2725 343.323C2725 346.882 2723.78 348.662 2721.33 348.662H2721Z" fill="white"/>
<path d="M2200.33 89.6462C2191.37 93.7048 2182.41 97.6507 2173.46 101.484C2164.69 105.317 2157.19 109.488 2150.98 113.998C2149.88 114.675 2148.88 115.013 2147.96 115.013C2146.68 115.013 2145.59 114.449 2144.67 113.322C2143.76 112.194 2143.3 110.841 2143.3 109.263C2143.3 107.91 2144.4 105.881 2146.59 103.175C2148.79 100.244 2152.81 96.0724 2158.66 90.6608C2164.69 85.0238 2173.28 77.583 2184.42 68.3382C2184.79 68.1127 2185.34 68 2186.07 68C2187.9 68 2190 69.1274 2192.38 71.3822C2194.93 73.4116 2197.22 75.8918 2199.23 78.8231C2201.24 81.5289 2202.24 84.0092 2202.24 86.264C2202.24 87.8423 2201.6 88.9697 2200.33 89.6462Z" fill="white"/>
</svg>
