<svg width="1957" height="821" viewBox="0 0 1957 821" fill="none" xmlns="http://www.w3.org/2000/svg">
<path d="M1.00041 617.974C1.00041 611.078 0.778099 604.405 0.333472 597.955C0.111157 591.504 0 586.388 0 582.607C0 580.382 2.44545 579.27 7.33636 579.27C11.1157 579.27 15.2285 580.16 19.6748 581.939C24.1211 583.496 26.3442 585.721 26.3442 588.612C26.3442 591.282 26.233 595.508 26.0107 601.291C25.7884 606.852 25.6773 612.524 25.6773 618.307V779.127C25.6773 786.023 25.7884 792.696 26.0107 799.146C26.4554 805.597 26.6777 810.713 26.6777 814.494C26.6777 816.719 24.2322 817.831 19.3413 817.831C15.562 817.831 11.4492 816.941 7.00289 815.162C2.55661 813.605 0.333472 811.38 0.333472 808.489C0.333472 805.819 0.444629 801.704 0.666943 796.143C0.889256 790.36 1.00041 784.577 1.00041 778.794V617.974Z" fill="white"/>
<path d="M99.2781 608.298H98.9447C95.6099 608.298 92.2752 606.296 88.9405 602.292C85.6058 598.288 83.9385 594.841 83.9385 591.949C83.9385 589.725 84.9389 588.501 86.9397 588.279C100.945 585.61 112.061 583.608 120.287 582.273C128.512 580.716 135.182 579.604 140.295 578.937C145.63 578.047 150.521 577.602 154.968 577.602C159.414 577.38 164.638 577.268 170.641 577.268C199.764 577.268 221.217 582.162 235.001 591.949C248.784 601.514 255.676 614.86 255.676 631.987C255.676 651.561 249.451 667.132 237.001 678.698C224.774 690.265 208.434 698.161 187.981 702.388C181.756 703.722 173.531 704.945 163.304 706.058C153.3 707.17 144.074 707.726 135.626 707.726C133.848 707.726 132.069 707.726 130.291 707.726C128.735 707.726 127.289 707.615 125.956 707.392C124.622 706.947 123.51 706.503 122.621 706.058V776.124C122.621 783.687 122.732 791.139 122.954 798.479C123.399 805.597 123.621 811.047 123.621 814.828C123.621 817.052 121.287 818.164 116.618 818.164C113.061 818.164 109.171 817.275 104.947 815.495C100.723 813.938 98.6112 811.714 98.6112 808.822C98.6112 806.153 98.7223 801.593 98.9447 795.143C99.167 788.692 99.2781 782.241 99.2781 775.791V608.298ZM122.621 693.713C123.288 693.268 123.955 692.934 124.622 692.712C125.289 692.489 126.067 692.378 126.956 692.378C147.409 691.043 164.194 688.485 177.31 684.704C190.427 680.923 200.653 676.585 207.989 671.692C215.548 666.576 220.995 661.571 224.33 656.677C227.664 651.561 229.665 647.001 230.332 642.998C231.221 638.771 231.666 635.768 231.666 633.989C231.666 621.533 226.219 612.524 215.326 606.963C204.655 601.18 189.537 598.288 169.974 598.288C161.97 598.288 153.856 598.956 145.63 600.29C137.405 601.402 129.735 602.959 122.621 604.961V693.713Z" fill="white"/>
<path d="M462.149 815.162C460.37 814.939 456.48 814.717 450.477 814.494C444.697 814.272 438.917 814.161 433.137 814.161H427.801L335.097 815.495C331.54 815.495 328.427 815.829 325.759 816.496C323.314 817.386 320.424 817.831 317.089 817.831C313.977 817.831 310.864 815.94 307.752 812.159C304.64 808.155 303.083 804.818 303.083 802.149C303.083 800.592 303.417 798.257 304.084 795.143C304.973 792.028 305.418 789.137 305.418 786.468V699.718C302.972 698.384 300.86 695.937 299.082 692.378C297.303 688.819 296.414 685.816 296.414 683.369C296.414 680.923 297.303 679.699 299.082 679.699H299.749C300.638 679.922 301.527 680.144 302.416 680.367C303.528 680.367 304.528 680.367 305.418 680.367V612.969C305.418 609.41 305.418 606.074 305.418 602.959C305.418 599.623 305.195 596.62 304.751 593.951C304.528 591.949 304.306 590.392 304.084 589.28C304.084 587.945 304.084 586.833 304.084 585.943C304.084 583.719 304.64 582.384 305.751 581.939C306.863 581.495 307.863 581.272 308.752 581.272C311.865 581.272 315.533 581.939 319.757 583.274C323.981 584.609 326.204 585.387 326.426 585.61L416.797 579.604C421.91 579.159 427.246 578.603 432.804 577.936C438.584 577.268 442.474 576.935 444.475 576.935C447.587 576.935 450.255 578.937 452.478 582.94C454.701 586.722 455.813 590.169 455.813 593.284C455.813 597.065 454.368 598.956 451.478 598.956H437.472C434.137 598.956 430.692 598.956 427.135 598.956C423.578 598.956 420.243 599.067 417.13 599.289L328.094 605.295V680.033L398.456 675.695C403.569 675.251 408.905 674.694 414.463 674.027C420.243 673.36 424.133 673.026 426.134 673.026C429.247 673.026 431.914 675.028 434.137 679.032C436.361 682.813 437.472 686.372 437.472 689.709C437.472 693.49 436.027 695.381 433.137 695.381H419.131C415.797 695.381 412.351 695.381 408.794 695.381C405.237 695.381 401.902 695.492 398.79 695.714L328.094 699.718V794.809L427.468 793.141C432.359 793.141 437.361 793.029 442.474 792.807C447.587 792.585 451.811 792.362 455.146 792.14H455.48C458.37 792.14 460.815 794.253 462.816 798.479C465.039 802.483 466.151 806.264 466.151 809.823C466.151 813.382 464.928 815.162 462.482 815.162H462.149Z" fill="white"/>
<path d="M671.467 617.974C671.467 611.078 671.245 604.405 670.8 597.955C670.356 591.504 670.133 586.388 670.133 582.607C670.133 580.382 672.468 579.27 677.136 579.27C680.915 579.27 684.806 580.16 688.808 581.939C693.032 583.496 695.144 585.721 695.144 588.612C695.144 591.282 695.032 595.508 694.81 601.291C694.588 606.852 694.477 612.524 694.477 618.307V785.467C694.477 787.469 694.699 790.583 695.144 794.809C695.588 798.813 695.811 801.816 695.811 803.817C695.811 806.042 694.699 808.377 692.476 810.824C690.475 813.048 687.918 814.939 684.806 816.496C681.694 818.053 678.803 818.832 676.136 818.832C672.579 818.832 669.689 817.275 667.465 814.161C665.465 811.047 663.575 808.266 661.796 805.819C652.237 792.251 642.122 777.681 631.451 762.111C620.779 746.541 610.108 730.637 599.437 714.399C588.766 698.161 578.429 682.146 568.425 666.353C558.643 650.56 549.528 635.546 541.08 621.31V779.461C541.08 786.356 541.191 793.029 541.413 799.48C541.858 805.931 542.08 811.047 542.08 814.828C542.08 815.94 541.413 816.719 540.08 817.164C538.746 817.831 537.189 818.164 535.411 818.164C531.854 818.164 527.963 817.275 523.739 815.495C519.516 813.938 517.404 811.714 517.404 808.822C517.404 806.153 517.515 802.038 517.737 796.477C517.959 790.694 518.07 784.911 518.07 779.127V600.624C518.07 598.622 517.626 596.509 516.737 594.285C516.07 591.838 515.736 589.836 515.736 588.279C515.736 587.389 515.847 586.833 516.07 586.611C517.181 584.164 519.849 582.162 524.073 580.605C528.519 579.048 532.41 578.269 535.744 578.269C537.078 578.269 538.079 578.38 538.746 578.603C540.747 578.825 542.192 579.826 543.081 581.606C544.192 583.385 545.304 585.165 546.415 586.944C560.421 610.3 574.538 633.433 588.766 656.344C603.217 679.254 617.445 701.275 631.451 722.407C645.679 743.315 659.018 762.445 671.467 779.795V617.974Z" fill="white"/>
<path d="M923.535 691.043C907.306 687.262 894.412 681.367 884.852 673.36C875.293 665.352 870.513 653.897 870.513 638.994C870.513 628.317 873.959 618.196 880.85 608.632C887.742 599.067 897.19 591.393 909.195 585.61C921.2 579.604 934.873 576.601 950.212 576.601C962.662 576.601 974.222 578.492 984.893 582.273C995.564 585.832 1004.12 590.169 1010.57 595.285C1017.24 600.401 1020.57 605.295 1020.57 609.966C1020.57 615.082 1019.57 619.308 1017.57 622.645C1015.57 625.759 1013.68 627.316 1011.9 627.316C1010.35 627.316 1008.79 626.537 1007.24 624.98C1005.68 623.423 1004.35 622.089 1003.23 620.977C999.232 615.861 994.119 611.634 987.894 608.298C981.67 604.739 975.223 602.07 968.553 600.29C962.106 598.511 956.326 597.621 951.213 597.621C940.542 597.621 930.871 599.734 922.201 603.96C913.53 607.964 906.639 613.191 901.526 619.642C896.635 625.87 894.189 632.543 894.189 639.661C894.189 647.224 897.079 653.563 902.859 658.679C908.862 663.795 918.755 667.91 932.538 671.024L968.887 680.367C990.451 685.927 1006.35 694.602 1016.57 706.391C1027.02 717.958 1032.25 732.639 1032.25 750.433C1032.25 763.334 1028.8 775.123 1021.91 785.8C1015.24 796.477 1005.46 804.93 992.563 811.158C979.891 817.386 964.329 820.5 945.877 820.5C927.203 820.5 910.974 817.386 897.19 811.158C883.629 804.93 871.624 795.921 861.176 784.132C860.064 783.02 859.508 781.24 859.508 778.794C859.508 775.012 860.953 771.231 863.843 767.449C866.733 763.446 869.624 761.444 872.514 761.444C874.292 761.444 875.626 762.222 876.515 763.779C881.851 772.454 887.742 779.238 894.189 784.132C900.636 788.803 907.195 792.251 913.864 794.475C920.533 796.7 926.647 798.145 932.205 798.813C937.985 799.258 942.654 799.48 946.211 799.48C957.104 799.48 967.219 797.478 976.556 793.474C986.116 789.248 993.786 783.687 999.566 776.792C1005.57 769.674 1008.57 761.777 1008.57 753.102C1008.57 738.867 1004.68 727.745 996.898 719.737C989.117 711.507 977.668 705.39 962.551 701.387L923.535 691.043Z" fill="white"/>
<path d="M1112.68 739.423H1111.34C1107.78 746.986 1104.23 754.326 1100.67 761.444C1097.11 768.562 1093.78 775.235 1090.67 781.463C1088.89 785.022 1086.66 789.915 1084 796.143C1081.55 802.372 1079.66 807.376 1078.33 811.158C1077.66 812.937 1075.77 814.272 1072.66 815.162C1069.77 816.274 1066.66 816.83 1063.32 816.83C1060.21 816.83 1057.32 816.274 1054.65 815.162C1052.21 814.272 1050.98 812.715 1050.98 810.49C1050.98 809.156 1051.43 807.932 1052.32 806.82C1053.21 805.486 1054.1 804.04 1054.98 802.483C1055.87 800.703 1057.32 797.812 1059.32 793.808C1061.54 789.804 1064.77 783.798 1068.99 775.791C1073.44 767.561 1079.33 756.217 1086.66 741.758H1084.33C1081.66 741.758 1079.22 739.756 1076.99 735.753C1074.77 731.526 1073.66 727.745 1073.66 724.408C1073.66 721.072 1074.88 719.404 1077.33 719.404H1077.99C1080 719.626 1082 719.849 1084 720.071C1086 720.071 1088.33 720.071 1091 720.071H1097.34C1104.89 704.945 1112.45 689.709 1120.01 674.361C1127.57 658.79 1134.46 644.221 1140.69 630.653C1146.91 617.084 1151.8 605.74 1155.36 596.62C1156.25 594.618 1156.92 591.615 1157.36 587.612C1157.8 583.385 1158.58 580.605 1159.69 579.27C1160.81 577.936 1162.92 577.268 1166.03 577.268C1169.81 577.268 1173.7 578.269 1177.7 580.271C1181.7 582.051 1184.15 584.053 1185.04 586.277C1185.04 586.499 1185.04 586.722 1185.04 586.944C1185.26 587.167 1185.37 587.389 1185.37 587.612C1185.37 588.501 1185.15 589.613 1184.7 590.948C1184.48 592.06 1184.37 593.172 1184.37 594.285C1184.37 595.397 1184.48 596.175 1184.7 596.62C1191.15 613.747 1198.6 632.543 1207.05 653.007C1215.72 673.249 1224.72 693.713 1234.06 714.399C1243.4 735.085 1252.4 754.548 1261.07 772.788C1262.85 776.347 1265.63 781.463 1269.41 788.136C1273.19 794.809 1276.85 800.703 1280.41 805.819C1280.86 806.487 1281.19 807.154 1281.41 807.821C1281.63 808.266 1281.74 808.711 1281.74 809.156C1281.74 811.825 1279.74 813.827 1275.74 815.162C1271.74 816.719 1267.85 817.497 1264.07 817.497C1261.63 817.497 1259.4 817.164 1257.4 816.496C1255.4 815.829 1254.18 814.828 1253.73 813.493C1252.4 809.49 1250.51 804.262 1248.06 797.812C1245.62 791.139 1243.51 785.8 1241.73 781.797C1238.39 774.679 1234.95 767.227 1231.39 759.442C1227.83 751.434 1224.17 743.204 1220.39 734.752L1112.68 739.423ZM1212.05 715.734C1203.82 696.604 1195.93 677.92 1188.37 659.68C1180.81 641.441 1174.7 626.204 1170.03 613.97C1166.25 622.422 1161.7 632.432 1156.36 643.999C1151.25 655.565 1145.69 667.799 1139.69 680.7C1133.68 693.601 1127.57 706.503 1121.35 719.404L1212.05 715.734Z" fill="white"/>
<path d="M1459.29 615.972C1459.29 612.858 1459.18 608.965 1458.96 604.294C1458.74 599.623 1458.52 595.174 1458.29 590.948C1458.29 586.722 1458.29 583.719 1458.29 581.939C1458.29 580.605 1459.07 579.604 1460.63 578.937C1462.41 578.269 1464.41 577.936 1466.63 577.936C1470.41 577.936 1474.19 578.714 1477.97 580.271C1481.97 581.828 1483.97 584.053 1483.97 586.944C1483.97 589.613 1483.86 593.728 1483.64 599.289C1483.42 604.85 1483.3 610.522 1483.3 616.305V737.755C1483.3 754.215 1479.64 768.673 1472.3 781.129C1464.96 793.585 1454.74 803.261 1441.62 810.157C1428.5 817.052 1413.16 820.5 1395.6 820.5C1368.7 820.5 1348.8 814.383 1335.91 802.149C1323.24 789.693 1316.9 771.787 1316.9 748.431V618.975C1316.9 612.079 1316.68 605.295 1316.24 598.622C1316.01 591.727 1315.9 586.388 1315.9 582.607C1315.9 581.272 1316.68 580.271 1318.24 579.604C1320.02 578.937 1322.02 578.603 1324.24 578.603C1328.02 578.603 1331.8 579.381 1335.58 580.938C1339.58 582.496 1341.58 584.72 1341.58 587.612C1341.58 590.281 1341.47 594.841 1341.25 601.291C1341.02 607.742 1340.91 613.859 1340.91 619.642V744.428C1340.91 764.669 1345.58 778.905 1354.92 787.135C1364.48 795.365 1378.04 799.48 1395.6 799.48C1408.05 799.48 1419.06 796.7 1428.62 791.139C1438.17 785.355 1445.62 777.57 1450.96 767.783C1456.52 757.774 1459.29 746.429 1459.29 733.751V615.972Z" fill="white"/>
<path d="M1574.66 817.164C1562.66 817.164 1553.88 816.719 1548.32 815.829C1542.76 814.939 1539.2 813.938 1537.65 812.826C1536.09 811.491 1535.31 810.379 1535.31 809.49C1535.31 807.488 1536.65 805.931 1539.31 804.818C1541.98 803.706 1546.76 803.15 1553.65 803.15V605.629C1550.54 604.961 1547.54 603.071 1544.65 599.957C1541.76 596.62 1540.31 593.728 1540.31 591.282C1540.31 589.28 1541.09 587.945 1542.65 587.278C1545.98 585.943 1550.65 584.72 1556.66 583.608C1562.88 582.273 1569.66 581.161 1577 580.271C1584.56 579.159 1592 578.38 1599.34 577.936C1606.9 577.268 1613.57 576.935 1619.35 576.935C1636.02 576.935 1651.69 579.715 1666.37 585.276C1681.26 590.837 1694.38 598.844 1705.72 609.299C1717.28 619.531 1726.28 631.987 1732.73 646.668C1739.4 661.126 1742.73 677.364 1742.73 695.381C1742.73 713.398 1739.84 729.302 1734.06 743.093C1728.28 756.661 1720.61 768.228 1711.05 777.793C1701.49 787.135 1690.82 794.586 1679.04 800.147C1667.26 805.708 1655.25 809.601 1643.02 811.825C1631.69 813.827 1620.79 815.162 1610.34 815.829C1599.9 816.496 1589.56 816.941 1579.33 817.164H1574.66ZM1577 801.148C1609.68 800.481 1636.47 795.476 1657.36 786.134C1678.48 776.792 1694.05 764.224 1704.05 748.431C1714.05 732.639 1719.06 714.844 1719.06 695.047C1719.06 679.477 1716.05 665.686 1710.05 653.674C1704.27 641.441 1696.49 631.209 1686.71 622.979C1676.93 614.526 1666.03 608.187 1654.03 603.96C1642.02 599.512 1629.91 597.287 1617.68 597.287C1603.45 597.287 1589.89 599.067 1577 602.626V801.148Z" fill="white"/>
<path d="M1953 815.162C1951.22 814.939 1947.33 814.717 1941.33 814.494C1935.55 814.272 1929.77 814.161 1923.99 814.161H1918.65L1825.95 815.495C1822.39 815.495 1819.28 815.829 1816.61 816.496C1814.16 817.386 1811.27 817.831 1807.94 817.831C1804.83 817.831 1801.71 815.94 1798.6 812.159C1795.49 808.155 1793.93 804.818 1793.93 802.149C1793.93 800.592 1794.27 798.257 1794.93 795.143C1795.82 792.028 1796.27 789.137 1796.27 786.468V699.718C1793.82 698.384 1791.71 695.937 1789.93 692.378C1788.15 688.819 1787.26 685.816 1787.26 683.369C1787.26 680.923 1788.15 679.699 1789.93 679.699H1790.6C1791.49 679.922 1792.38 680.144 1793.27 680.367C1794.38 680.367 1795.38 680.367 1796.27 680.367V612.969C1796.27 609.41 1796.27 606.074 1796.27 602.959C1796.27 599.623 1796.04 596.62 1795.6 593.951C1795.38 591.949 1795.16 590.392 1794.93 589.28C1794.93 587.945 1794.93 586.833 1794.93 585.943C1794.93 583.719 1795.49 582.384 1796.6 581.939C1797.71 581.495 1798.71 581.272 1799.6 581.272C1802.71 581.272 1806.38 581.939 1810.61 583.274C1814.83 584.609 1817.05 585.387 1817.28 585.61L1907.65 579.604C1912.76 579.159 1918.1 578.603 1923.65 577.936C1929.43 577.268 1933.32 576.935 1935.32 576.935C1938.44 576.935 1941.1 578.937 1943.33 582.94C1945.55 586.722 1946.66 590.169 1946.66 593.284C1946.66 597.065 1945.22 598.956 1942.33 598.956H1928.32C1924.99 598.956 1921.54 598.956 1917.98 598.956C1914.43 598.956 1911.09 599.067 1907.98 599.289L1818.94 605.295V680.033L1889.31 675.695C1894.42 675.251 1899.75 674.694 1905.31 674.027C1911.09 673.36 1914.98 673.026 1916.98 673.026C1920.1 673.026 1922.76 675.028 1924.99 679.032C1927.21 682.813 1928.32 686.372 1928.32 689.709C1928.32 693.49 1926.88 695.381 1923.99 695.381H1909.98C1906.65 695.381 1903.2 695.381 1899.64 695.381C1896.09 695.381 1892.75 695.492 1889.64 695.714L1818.94 699.718V794.809L1918.32 793.141C1923.21 793.141 1928.21 793.029 1933.32 792.807C1938.44 792.585 1942.66 792.362 1946 792.14H1946.33C1949.22 792.14 1951.66 794.253 1953.67 798.479C1955.89 802.483 1957 806.264 1957 809.823C1957 813.382 1955.78 815.162 1953.33 815.162H1953Z" fill="white"/>
<path d="M1432.33 556.146C1423.37 560.205 1414.41 564.151 1405.46 567.984C1396.69 571.817 1389.19 575.988 1382.98 580.498C1381.88 581.175 1380.88 581.513 1379.96 581.513C1378.68 581.513 1377.59 580.949 1376.67 579.822C1375.76 578.694 1375.3 577.341 1375.3 575.763C1375.3 574.41 1376.4 572.381 1378.59 569.675C1380.79 566.744 1384.81 562.572 1390.66 557.161C1396.69 551.524 1405.28 544.083 1416.42 534.838C1416.79 534.613 1417.34 534.5 1418.07 534.5C1419.9 534.5 1422 535.627 1424.38 537.882C1426.93 539.912 1429.22 542.392 1431.23 545.323C1433.24 548.029 1434.24 550.509 1434.24 552.764C1434.24 554.342 1433.6 555.47 1432.33 556.146Z" fill="white"/>
<path d="M1093 144.55C1083.26 144.944 1073.76 148.299 1065.07 152.355C1056.01 156.581 1046.69 162.133 1037.98 167.189C1019.5 177.91 1003.71 186.213 989.111 186.015C973.935 185.808 957.618 178.137 939.464 168.741C930.819 164.267 921.683 159.391 912.952 155.655C904.246 151.93 894.867 148.846 885.49 148.52L884.69 171.506C889.848 171.685 896.138 173.479 903.904 176.802C911.645 180.114 919.786 184.455 928.892 189.168C946.238 198.146 967.319 208.721 988.799 209.013C1010.86 209.312 1032.23 197.114 1049.52 187.084C1058.69 181.765 1066.9 176.879 1074.79 173.199C1081.96 169.854 1087.93 167.969 1093 167.584V202.55C1083.26 202.944 1073.76 206.299 1065.07 210.355C1056.01 214.581 1046.69 220.133 1037.98 225.189C1019.5 235.91 1003.71 244.213 989.111 244.015C973.935 243.808 957.618 236.137 939.464 226.741C930.819 222.267 921.683 217.391 912.952 213.655C904.246 209.93 894.867 206.846 885.49 206.52L884.69 229.506C889.848 229.685 896.138 231.479 903.904 234.802C911.645 238.114 919.786 242.455 928.892 247.168C946.238 256.146 967.319 266.721 988.799 267.013C1010.86 267.312 1032.23 255.114 1049.52 245.084C1058.69 239.765 1066.9 234.879 1074.79 231.199C1081.96 227.854 1087.93 225.969 1093 225.584V260.55C1083.26 260.944 1073.76 264.299 1065.07 268.355C1056.01 272.581 1046.69 278.133 1037.98 283.189C1019.5 293.91 1003.71 302.213 989.111 302.015C973.935 301.808 957.618 294.137 939.464 284.741C930.819 280.267 921.683 275.391 912.952 271.655C904.246 267.93 894.867 264.846 885.49 264.52L884.69 287.506C889.848 287.685 896.138 289.479 903.904 292.802C911.645 296.114 919.786 300.455 928.892 305.168C946.238 314.146 967.319 324.721 988.799 325.013C1010.86 325.312 1032.23 313.114 1049.52 303.084C1058.69 297.765 1066.9 292.879 1074.79 289.199C1081.96 285.854 1087.93 283.969 1093 283.584V434.5H693V34.5H1093V144.55ZM1094.16 260.517C1104.51 260.352 1114.32 263.756 1123.13 267.997C1131.91 272.223 1140.85 277.87 1149.15 282.964C1166.72 293.746 1182.01 302.214 1197.51 302.014C1213.89 301.803 1231.93 293.949 1250.27 284.792C1258.99 280.441 1268.05 275.664 1276.03 272.138C1283.78 268.708 1292.46 265.523 1300.54 265.523V277.023V288.523C1297.69 288.524 1292.87 289.838 1285.33 293.172C1278.01 296.409 1269.98 300.662 1260.54 305.371C1242.59 314.334 1220.13 324.725 1197.81 325.013C1174.62 325.312 1153.77 312.783 1137.12 302.567C1128.31 297.162 1120.61 292.309 1113.16 288.723C1105.74 285.152 1099.71 283.431 1094.53 283.514C1094.03 283.522 1093.52 283.545 1093 283.584V260.55C1093.39 260.534 1093.77 260.523 1094.16 260.517ZM1094.16 202.517C1104.51 202.352 1114.32 205.756 1123.13 209.997C1131.91 214.223 1140.85 219.87 1149.15 224.964C1166.72 235.746 1182.01 244.214 1197.51 244.014C1213.89 243.803 1231.93 235.949 1250.27 226.792C1258.99 222.441 1268.05 217.664 1276.03 214.138C1283.78 210.708 1292.46 207.523 1300.54 207.523V219.023V230.523C1297.69 230.524 1292.87 231.838 1285.33 235.172C1278.01 238.409 1269.98 242.662 1260.54 247.371C1242.59 256.334 1220.13 266.725 1197.81 267.013C1174.62 267.312 1153.77 254.783 1137.12 244.567C1128.31 239.162 1120.61 234.309 1113.16 230.723C1105.74 227.152 1099.71 225.431 1094.53 225.514C1094.03 225.522 1093.52 225.545 1093 225.584V202.55C1093.39 202.534 1093.77 202.523 1094.16 202.517ZM1094.16 144.517C1104.51 144.352 1114.32 147.756 1123.13 151.997C1131.91 156.223 1140.85 161.87 1149.15 166.964C1166.72 177.746 1182.01 186.214 1197.51 186.014C1213.89 185.803 1231.93 177.949 1250.27 168.792C1258.99 164.441 1268.05 159.664 1276.03 156.138C1283.78 152.708 1292.46 149.523 1300.54 149.523V161.023V172.523C1297.69 172.524 1292.87 173.838 1285.33 177.172C1278.01 180.409 1269.98 184.662 1260.54 189.371C1242.59 198.334 1220.13 208.725 1197.81 209.013C1174.62 209.312 1153.77 196.783 1137.12 186.567C1128.31 181.162 1120.61 176.309 1113.16 172.723C1105.74 169.152 1099.71 167.431 1094.53 167.514C1094.03 167.522 1093.52 167.545 1093 167.584V144.55C1093.39 144.534 1093.77 144.523 1094.16 144.517Z" fill="white"/>
<path d="M1121.5 8H663.5V460H1121.5V8Z" stroke="white" stroke-width="15"/>
</svg>
